M48
; DRILL file {KiCad (5.1.2)-2} date 30.10.2019. 14:21:17
; FORMAT={-:-/ absolute / inch / decimal}
; #@! TF.CreationDate,2019-10-30T14:21:17+01:00
; #@! TF.GenerationSoftware,Kicad,Pcbnew,(5.1.2)-2
; #@! TF.FileFunction,Plated,1,4,PTH
FMAT,2
INCH
T1C0.0157
T2C0.0394
%
G90
G05
T1
X3.185Y-6.675
X3.185Y-6.765
X3.19Y-4.96
X3.19Y-5.08
X3.225Y-6.645
X3.225Y-6.795
X3.23Y-4.985
X3.23Y-5.11
X3.91Y-5.3
X3.915Y-5.495
X3.96Y-6.19
X3.965Y-5.96
X3.965Y-6.0
X3.99Y-5.3
X4.005Y-5.96
X4.005Y-6.0
X4.01Y-6.095
X4.01Y-6.15
X4.05Y-6.0
X4.065Y-5.7
X4.065Y-6.475
X4.07Y-6.1
X4.07Y-6.145
X4.07Y-6.19
X4.07Y-6.235
X4.1Y-5.955
X4.11Y-6.1
X4.11Y-6.145
X4.11Y-6.19
X4.135Y-6.475
X4.14Y-5.7
X4.15Y-6.0
X4.15Y-6.225
X4.16Y-6.14
X4.2Y-5.955
X4.2Y-6.175
X4.2Y-6.225
X4.21Y-6.04
X4.21Y-6.11
X4.215Y-5.3
X4.25Y-5.955
X4.25Y-6.005
X4.25Y-6.175
X4.25Y-6.225
X4.285Y-5.5
X4.29Y-5.3
X4.985Y-4.96
X4.985Y-5.08
X4.985Y-6.645
X4.985Y-6.765
X5.025Y-4.985
X5.025Y-5.11
X5.025Y-6.67
X5.025Y-6.795
T2
X4.905Y-5.275
X4.905Y-5.375
X4.905Y-5.475
X4.905Y-5.575
X4.905Y-5.675
X4.905Y-5.775
X4.905Y-5.875
X4.905Y-5.975
X4.905Y-6.075
X4.905Y-6.175
X4.905Y-6.275
X4.905Y-6.375
X4.905Y-6.475
X5.005Y-5.275
X5.005Y-5.375
X5.005Y-5.475
X5.005Y-5.575
X5.005Y-5.675
X5.005Y-5.775
X5.005Y-5.875
X5.005Y-5.975
X5.005Y-6.075
X5.005Y-6.175
X5.005Y-6.275
X5.005Y-6.375
X5.005Y-6.475
X3.505Y-6.675
X3.505Y-6.775
X3.605Y-6.675
X3.605Y-6.775
X3.705Y-6.675
X3.705Y-6.775
X3.805Y-6.675
X3.805Y-6.775
X3.905Y-6.675
X3.905Y-6.775
X4.005Y-6.675
X4.005Y-6.775
X4.105Y-6.675
X4.105Y-6.775
X4.205Y-6.675
X4.205Y-6.775
X4.305Y-6.675
X4.305Y-6.775
X4.405Y-6.675
X4.405Y-6.775
X4.505Y-6.675
X4.505Y-6.775
X4.605Y-6.675
X4.605Y-6.775
X4.705Y-6.675
X4.705Y-6.775
X3.205Y-5.275
X3.205Y-5.375
X3.205Y-5.475
X3.205Y-5.575
X3.205Y-5.675
X3.205Y-5.775
X3.205Y-5.875
X3.205Y-5.975
X3.205Y-6.075
X3.205Y-6.175
X3.205Y-6.275
X3.205Y-6.375
X3.205Y-6.475
X3.305Y-5.275
X3.305Y-5.375
X3.305Y-5.475
X3.305Y-5.575
X3.305Y-5.675
X3.305Y-5.775
X3.305Y-5.875
X3.305Y-5.975
X3.305Y-6.075
X3.305Y-6.175
X3.305Y-6.275
X3.305Y-6.375
X3.305Y-6.475
X3.505Y-4.975
X3.505Y-5.075
X3.605Y-4.975
X3.605Y-5.075
X3.705Y-4.975
X3.705Y-5.075
X3.805Y-4.975
X3.805Y-5.075
X3.905Y-4.975
X3.905Y-5.075
X4.005Y-4.975
X4.005Y-5.075
X4.105Y-4.975
X4.105Y-5.075
X4.205Y-4.975
X4.205Y-5.075
X4.305Y-4.975
X4.305Y-5.075
X4.405Y-4.975
X4.405Y-5.075
X4.505Y-4.975
X4.505Y-5.075
X4.605Y-4.975
X4.605Y-5.075
X4.705Y-4.975
X4.705Y-5.075
T0
M30
