G04 #@! TF.GenerationSoftware,KiCad,Pcbnew,(5.1.2)-2*
G04 #@! TF.CreationDate,2019-10-30T14:21:15+01:00*
G04 #@! TF.ProjectId,PIC18F67K40 MCU Card,50494331-3846-4363-974b-3430204d4355,rev?*
G04 #@! TF.SameCoordinates,Original*
G04 #@! TF.FileFunction,Copper,L3,Inr*
G04 #@! TF.FilePolarity,Positive*
%FSLAX46Y46*%
G04 Gerber Fmt 4.6, Leading zero omitted, Abs format (unit mm)*
G04 Created by KiCad (PCBNEW (5.1.2)-2) date 2019-10-30 14:21:15*
%MOMM*%
%LPD*%
G04 APERTURE LIST*
%ADD10O,1.700000X1.700000*%
%ADD11R,1.700000X1.700000*%
%ADD12C,0.800000*%
%ADD13C,0.254000*%
G04 APERTURE END LIST*
D10*
X81407000Y-156845000D03*
X83947000Y-159385000D03*
X83947000Y-133985000D03*
X81407000Y-144145000D03*
X83947000Y-156845000D03*
X81407000Y-141605000D03*
X83947000Y-154305000D03*
X83947000Y-161925000D03*
X83947000Y-139065000D03*
X81407000Y-146685000D03*
X81407000Y-154305000D03*
X81407000Y-159385000D03*
X83947000Y-144145000D03*
X81407000Y-136525000D03*
D11*
X81407000Y-133985000D03*
D10*
X83947000Y-149225000D03*
X83947000Y-164465000D03*
X81407000Y-161925000D03*
X83947000Y-136525000D03*
X81407000Y-164465000D03*
X81407000Y-151765000D03*
X81407000Y-149225000D03*
X83947000Y-141605000D03*
X81407000Y-139065000D03*
X83947000Y-151765000D03*
X83947000Y-146685000D03*
X101727000Y-169545000D03*
X106807000Y-169545000D03*
X94107000Y-172085000D03*
X96647000Y-169545000D03*
X104267000Y-172085000D03*
X106807000Y-172085000D03*
X119507000Y-172085000D03*
X91567000Y-169545000D03*
X116967000Y-172085000D03*
X119507000Y-169545000D03*
X104267000Y-169545000D03*
D11*
X89027000Y-172085000D03*
D10*
X91567000Y-172085000D03*
X99187000Y-169545000D03*
X114427000Y-172085000D03*
X109347000Y-172085000D03*
X101727000Y-172085000D03*
X94107000Y-169545000D03*
X116967000Y-169545000D03*
X109347000Y-169545000D03*
X96647000Y-172085000D03*
X111887000Y-169545000D03*
X99187000Y-172085000D03*
X89027000Y-169545000D03*
X114427000Y-169545000D03*
X111887000Y-172085000D03*
X124587000Y-151765000D03*
X124587000Y-146685000D03*
X127127000Y-159385000D03*
X124587000Y-156845000D03*
X127127000Y-149225000D03*
X127127000Y-146685000D03*
X127127000Y-133985000D03*
X124587000Y-161925000D03*
X127127000Y-136525000D03*
X124587000Y-133985000D03*
X124587000Y-149225000D03*
D11*
X127127000Y-164465000D03*
D10*
X127127000Y-161925000D03*
X124587000Y-154305000D03*
X127127000Y-139065000D03*
X127127000Y-144145000D03*
X127127000Y-151765000D03*
X124587000Y-159385000D03*
X124587000Y-136525000D03*
X124587000Y-144145000D03*
X127127000Y-156845000D03*
X124587000Y-141605000D03*
X127127000Y-154305000D03*
X124587000Y-164465000D03*
X124587000Y-139065000D03*
X127127000Y-141605000D03*
X96647000Y-126365000D03*
X94107000Y-128905000D03*
X119507000Y-128905000D03*
X109347000Y-126365000D03*
X96647000Y-128905000D03*
X111887000Y-126365000D03*
X99187000Y-128905000D03*
X91567000Y-128905000D03*
X114427000Y-128905000D03*
X106807000Y-126365000D03*
X99187000Y-126365000D03*
X94107000Y-126365000D03*
X109347000Y-128905000D03*
X116967000Y-126365000D03*
D11*
X119507000Y-126365000D03*
D10*
X104267000Y-128905000D03*
X89027000Y-128905000D03*
X91567000Y-126365000D03*
X116967000Y-128905000D03*
X89027000Y-126365000D03*
X101727000Y-126365000D03*
X104267000Y-126365000D03*
X111887000Y-128905000D03*
X114427000Y-126365000D03*
X101727000Y-128905000D03*
X106807000Y-128905000D03*
D12*
X81915000Y-172593000D03*
X127635000Y-169418000D03*
X127635000Y-172593000D03*
X127635000Y-126619000D03*
X81915000Y-168783000D03*
X126619000Y-129032000D03*
X82042000Y-129794000D03*
X82042000Y-126619000D03*
X101854000Y-154813000D03*
X105664000Y-155956000D03*
X106680000Y-158115000D03*
X107950000Y-158115000D03*
X106680000Y-156845000D03*
X107950000Y-156845000D03*
X107950000Y-151257000D03*
X107950000Y-152527000D03*
X105156000Y-144780000D03*
X106680000Y-151257000D03*
X105410000Y-158115000D03*
X81026000Y-125984000D03*
X126619000Y-125984000D03*
X126619000Y-171831000D03*
X80899000Y-171831000D03*
X105029000Y-164465000D03*
X104394000Y-156083000D03*
X104394000Y-154940000D03*
X101727000Y-152400000D03*
X101727000Y-151384000D03*
X103378000Y-154940000D03*
X103378000Y-156083000D03*
X103378000Y-157226000D03*
X103378000Y-158369000D03*
X100711000Y-151384000D03*
X100711000Y-152400000D03*
X81026000Y-129032000D03*
X127635000Y-129794000D03*
X126619000Y-168783000D03*
X80899000Y-169545000D03*
X104394000Y-157226000D03*
X102870000Y-152400000D03*
X107061000Y-134620000D03*
X101346000Y-134620000D03*
X103251000Y-144780000D03*
X103251000Y-164465000D03*
X104140000Y-151257000D03*
X99441000Y-139573000D03*
X99314000Y-134620000D03*
X105410000Y-152400000D03*
X108966000Y-134620000D03*
X108839000Y-139700000D03*
X106934000Y-155194000D03*
X106934000Y-153416000D03*
X101854000Y-156210000D03*
X100584000Y-157226000D03*
D13*
G36*
X98923869Y-117387722D02*
G01*
X99037246Y-117421953D01*
X99141819Y-117477555D01*
X99233596Y-117552407D01*
X99309091Y-117643664D01*
X99365419Y-117747844D01*
X99400440Y-117860976D01*
X99416000Y-118009022D01*
X99416001Y-120174419D01*
X99418802Y-120202855D01*
X99418747Y-120210682D01*
X99419646Y-120219853D01*
X99445554Y-120466357D01*
X99457589Y-120524986D01*
X99468792Y-120583716D01*
X99471456Y-120592538D01*
X99544751Y-120829314D01*
X99567931Y-120884457D01*
X99590339Y-120939920D01*
X99594665Y-120948054D01*
X99594667Y-120948059D01*
X99594670Y-120948064D01*
X99712553Y-121166086D01*
X99745988Y-121215654D01*
X99778759Y-121265735D01*
X99784584Y-121272876D01*
X99942577Y-121463856D01*
X99985012Y-121505995D01*
X100026875Y-121548745D01*
X100033976Y-121554618D01*
X100226053Y-121711273D01*
X100275875Y-121744374D01*
X100325237Y-121778173D01*
X100333343Y-121782556D01*
X100552191Y-121898919D01*
X100607479Y-121921707D01*
X100662475Y-121945279D01*
X100671278Y-121948003D01*
X100908559Y-122019643D01*
X100967246Y-122031264D01*
X101025752Y-122043700D01*
X101034915Y-122044663D01*
X101034917Y-122044663D01*
X101281595Y-122068850D01*
X101281598Y-122068850D01*
X101313581Y-122072000D01*
X129507721Y-122072000D01*
X129904545Y-122110909D01*
X130255208Y-122216780D01*
X130578625Y-122388744D01*
X130862484Y-122620254D01*
X131095965Y-122902486D01*
X131270183Y-123224695D01*
X131378502Y-123574614D01*
X131420001Y-123969452D01*
X131420000Y-175227721D01*
X131381091Y-175624545D01*
X131275220Y-175975206D01*
X131103257Y-176298623D01*
X130871748Y-176582482D01*
X130589514Y-176815965D01*
X130267304Y-176990184D01*
X129917385Y-177098502D01*
X129522557Y-177140000D01*
X78772279Y-177140000D01*
X78375455Y-177101091D01*
X78024794Y-176995220D01*
X77701377Y-176823257D01*
X77417518Y-176591748D01*
X77184035Y-176309514D01*
X77009816Y-175987304D01*
X76901498Y-175637385D01*
X76860000Y-175242557D01*
X76860000Y-172935000D01*
X87538928Y-172935000D01*
X87551188Y-173059482D01*
X87587498Y-173179180D01*
X87646463Y-173289494D01*
X87725815Y-173386185D01*
X87822506Y-173465537D01*
X87932820Y-173524502D01*
X88052518Y-173560812D01*
X88177000Y-173573072D01*
X88741250Y-173570000D01*
X88900000Y-173411250D01*
X88900000Y-172212000D01*
X87700750Y-172212000D01*
X87542000Y-172370750D01*
X87538928Y-172935000D01*
X76860000Y-172935000D01*
X76860000Y-169443061D01*
X79864000Y-169443061D01*
X79864000Y-169646939D01*
X79903774Y-169846898D01*
X79981795Y-170035256D01*
X80095063Y-170204774D01*
X80239226Y-170348937D01*
X80408744Y-170462205D01*
X80597102Y-170540226D01*
X80797061Y-170580000D01*
X81000939Y-170580000D01*
X81200898Y-170540226D01*
X81389256Y-170462205D01*
X81558774Y-170348937D01*
X81702937Y-170204774D01*
X81816205Y-170035256D01*
X81894226Y-169846898D01*
X81899974Y-169818000D01*
X82016939Y-169818000D01*
X82216898Y-169778226D01*
X82405256Y-169700205D01*
X82574774Y-169586937D01*
X82616711Y-169545000D01*
X87534815Y-169545000D01*
X87563487Y-169836111D01*
X87648401Y-170116034D01*
X87786294Y-170374014D01*
X87971866Y-170600134D01*
X88001687Y-170624607D01*
X87932820Y-170645498D01*
X87822506Y-170704463D01*
X87725815Y-170783815D01*
X87646463Y-170880506D01*
X87587498Y-170990820D01*
X87551188Y-171110518D01*
X87538928Y-171235000D01*
X87542000Y-171799250D01*
X87700750Y-171958000D01*
X88900000Y-171958000D01*
X88900000Y-171938000D01*
X89154000Y-171938000D01*
X89154000Y-171958000D01*
X89174000Y-171958000D01*
X89174000Y-172212000D01*
X89154000Y-172212000D01*
X89154000Y-173411250D01*
X89312750Y-173570000D01*
X89877000Y-173573072D01*
X90001482Y-173560812D01*
X90121180Y-173524502D01*
X90231494Y-173465537D01*
X90328185Y-173386185D01*
X90407537Y-173289494D01*
X90466502Y-173179180D01*
X90487393Y-173110313D01*
X90511866Y-173140134D01*
X90737986Y-173325706D01*
X90995966Y-173463599D01*
X91275889Y-173548513D01*
X91494050Y-173570000D01*
X91639950Y-173570000D01*
X91858111Y-173548513D01*
X92138034Y-173463599D01*
X92396014Y-173325706D01*
X92622134Y-173140134D01*
X92807706Y-172914014D01*
X92837000Y-172859209D01*
X92866294Y-172914014D01*
X93051866Y-173140134D01*
X93277986Y-173325706D01*
X93535966Y-173463599D01*
X93815889Y-173548513D01*
X94034050Y-173570000D01*
X94179950Y-173570000D01*
X94398111Y-173548513D01*
X94678034Y-173463599D01*
X94936014Y-173325706D01*
X95162134Y-173140134D01*
X95347706Y-172914014D01*
X95377000Y-172859209D01*
X95406294Y-172914014D01*
X95591866Y-173140134D01*
X95817986Y-173325706D01*
X96075966Y-173463599D01*
X96355889Y-173548513D01*
X96574050Y-173570000D01*
X96719950Y-173570000D01*
X96938111Y-173548513D01*
X97218034Y-173463599D01*
X97476014Y-173325706D01*
X97702134Y-173140134D01*
X97887706Y-172914014D01*
X97917000Y-172859209D01*
X97946294Y-172914014D01*
X98131866Y-173140134D01*
X98357986Y-173325706D01*
X98615966Y-173463599D01*
X98895889Y-173548513D01*
X99114050Y-173570000D01*
X99259950Y-173570000D01*
X99478111Y-173548513D01*
X99758034Y-173463599D01*
X100016014Y-173325706D01*
X100242134Y-173140134D01*
X100427706Y-172914014D01*
X100457000Y-172859209D01*
X100486294Y-172914014D01*
X100671866Y-173140134D01*
X100897986Y-173325706D01*
X101155966Y-173463599D01*
X101435889Y-173548513D01*
X101654050Y-173570000D01*
X101799950Y-173570000D01*
X102018111Y-173548513D01*
X102298034Y-173463599D01*
X102556014Y-173325706D01*
X102782134Y-173140134D01*
X102967706Y-172914014D01*
X102997000Y-172859209D01*
X103026294Y-172914014D01*
X103211866Y-173140134D01*
X103437986Y-173325706D01*
X103695966Y-173463599D01*
X103975889Y-173548513D01*
X104194050Y-173570000D01*
X104339950Y-173570000D01*
X104558111Y-173548513D01*
X104838034Y-173463599D01*
X105096014Y-173325706D01*
X105322134Y-173140134D01*
X105507706Y-172914014D01*
X105537000Y-172859209D01*
X105566294Y-172914014D01*
X105751866Y-173140134D01*
X105977986Y-173325706D01*
X106235966Y-173463599D01*
X106515889Y-173548513D01*
X106734050Y-173570000D01*
X106879950Y-173570000D01*
X107098111Y-173548513D01*
X107378034Y-173463599D01*
X107636014Y-173325706D01*
X107862134Y-173140134D01*
X108047706Y-172914014D01*
X108077000Y-172859209D01*
X108106294Y-172914014D01*
X108291866Y-173140134D01*
X108517986Y-173325706D01*
X108775966Y-173463599D01*
X109055889Y-173548513D01*
X109274050Y-173570000D01*
X109419950Y-173570000D01*
X109638111Y-173548513D01*
X109918034Y-173463599D01*
X110176014Y-173325706D01*
X110402134Y-173140134D01*
X110587706Y-172914014D01*
X110617000Y-172859209D01*
X110646294Y-172914014D01*
X110831866Y-173140134D01*
X111057986Y-173325706D01*
X111315966Y-173463599D01*
X111595889Y-173548513D01*
X111814050Y-173570000D01*
X111959950Y-173570000D01*
X112178111Y-173548513D01*
X112458034Y-173463599D01*
X112716014Y-173325706D01*
X112942134Y-173140134D01*
X113127706Y-172914014D01*
X113157000Y-172859209D01*
X113186294Y-172914014D01*
X113371866Y-173140134D01*
X113597986Y-173325706D01*
X113855966Y-173463599D01*
X114135889Y-173548513D01*
X114354050Y-173570000D01*
X114499950Y-173570000D01*
X114718111Y-173548513D01*
X114998034Y-173463599D01*
X115256014Y-173325706D01*
X115482134Y-173140134D01*
X115667706Y-172914014D01*
X115697000Y-172859209D01*
X115726294Y-172914014D01*
X115911866Y-173140134D01*
X116137986Y-173325706D01*
X116395966Y-173463599D01*
X116675889Y-173548513D01*
X116894050Y-173570000D01*
X117039950Y-173570000D01*
X117258111Y-173548513D01*
X117538034Y-173463599D01*
X117796014Y-173325706D01*
X118022134Y-173140134D01*
X118207706Y-172914014D01*
X118242201Y-172849477D01*
X118311822Y-172966355D01*
X118506731Y-173182588D01*
X118740080Y-173356641D01*
X119002901Y-173481825D01*
X119150110Y-173526476D01*
X119380000Y-173405155D01*
X119380000Y-172212000D01*
X119634000Y-172212000D01*
X119634000Y-173405155D01*
X119863890Y-173526476D01*
X120011099Y-173481825D01*
X120273920Y-173356641D01*
X120507269Y-173182588D01*
X120702178Y-172966355D01*
X120851157Y-172716252D01*
X120948481Y-172441891D01*
X120827814Y-172212000D01*
X119634000Y-172212000D01*
X119380000Y-172212000D01*
X119360000Y-172212000D01*
X119360000Y-171958000D01*
X119380000Y-171958000D01*
X119380000Y-171938000D01*
X119634000Y-171938000D01*
X119634000Y-171958000D01*
X120827814Y-171958000D01*
X120948481Y-171728109D01*
X120851157Y-171453748D01*
X120702178Y-171203645D01*
X120507269Y-170987412D01*
X120278244Y-170816584D01*
X120336014Y-170785706D01*
X120562134Y-170600134D01*
X120747706Y-170374014D01*
X120885599Y-170116034D01*
X120970513Y-169836111D01*
X120999185Y-169545000D01*
X120970513Y-169253889D01*
X120885599Y-168973966D01*
X120747706Y-168715986D01*
X120719044Y-168681061D01*
X125584000Y-168681061D01*
X125584000Y-168884939D01*
X125623774Y-169084898D01*
X125701795Y-169273256D01*
X125815063Y-169442774D01*
X125959226Y-169586937D01*
X126128744Y-169700205D01*
X126317102Y-169778226D01*
X126517061Y-169818000D01*
X126680409Y-169818000D01*
X126717795Y-169908256D01*
X126831063Y-170077774D01*
X126975226Y-170221937D01*
X127144744Y-170335205D01*
X127333102Y-170413226D01*
X127533061Y-170453000D01*
X127736939Y-170453000D01*
X127936898Y-170413226D01*
X128125256Y-170335205D01*
X128294774Y-170221937D01*
X128438937Y-170077774D01*
X128552205Y-169908256D01*
X128630226Y-169719898D01*
X128670000Y-169519939D01*
X128670000Y-169316061D01*
X128630226Y-169116102D01*
X128552205Y-168927744D01*
X128438937Y-168758226D01*
X128294774Y-168614063D01*
X128125256Y-168500795D01*
X127936898Y-168422774D01*
X127736939Y-168383000D01*
X127573591Y-168383000D01*
X127536205Y-168292744D01*
X127422937Y-168123226D01*
X127278774Y-167979063D01*
X127109256Y-167865795D01*
X126920898Y-167787774D01*
X126720939Y-167748000D01*
X126517061Y-167748000D01*
X126317102Y-167787774D01*
X126128744Y-167865795D01*
X125959226Y-167979063D01*
X125815063Y-168123226D01*
X125701795Y-168292744D01*
X125623774Y-168481102D01*
X125584000Y-168681061D01*
X120719044Y-168681061D01*
X120562134Y-168489866D01*
X120336014Y-168304294D01*
X120078034Y-168166401D01*
X119798111Y-168081487D01*
X119579950Y-168060000D01*
X119434050Y-168060000D01*
X119215889Y-168081487D01*
X118935966Y-168166401D01*
X118677986Y-168304294D01*
X118451866Y-168489866D01*
X118266294Y-168715986D01*
X118237000Y-168770791D01*
X118207706Y-168715986D01*
X118022134Y-168489866D01*
X117796014Y-168304294D01*
X117538034Y-168166401D01*
X117258111Y-168081487D01*
X117039950Y-168060000D01*
X116894050Y-168060000D01*
X116675889Y-168081487D01*
X116395966Y-168166401D01*
X116137986Y-168304294D01*
X115911866Y-168489866D01*
X115726294Y-168715986D01*
X115697000Y-168770791D01*
X115667706Y-168715986D01*
X115482134Y-168489866D01*
X115256014Y-168304294D01*
X114998034Y-168166401D01*
X114718111Y-168081487D01*
X114499950Y-168060000D01*
X114354050Y-168060000D01*
X114135889Y-168081487D01*
X113855966Y-168166401D01*
X113597986Y-168304294D01*
X113371866Y-168489866D01*
X113186294Y-168715986D01*
X113157000Y-168770791D01*
X113127706Y-168715986D01*
X112942134Y-168489866D01*
X112716014Y-168304294D01*
X112458034Y-168166401D01*
X112178111Y-168081487D01*
X111959950Y-168060000D01*
X111814050Y-168060000D01*
X111595889Y-168081487D01*
X111315966Y-168166401D01*
X111057986Y-168304294D01*
X110831866Y-168489866D01*
X110646294Y-168715986D01*
X110617000Y-168770791D01*
X110587706Y-168715986D01*
X110402134Y-168489866D01*
X110176014Y-168304294D01*
X109918034Y-168166401D01*
X109638111Y-168081487D01*
X109419950Y-168060000D01*
X109274050Y-168060000D01*
X109055889Y-168081487D01*
X108775966Y-168166401D01*
X108517986Y-168304294D01*
X108291866Y-168489866D01*
X108106294Y-168715986D01*
X108077000Y-168770791D01*
X108047706Y-168715986D01*
X107862134Y-168489866D01*
X107636014Y-168304294D01*
X107378034Y-168166401D01*
X107098111Y-168081487D01*
X106879950Y-168060000D01*
X106734050Y-168060000D01*
X106515889Y-168081487D01*
X106235966Y-168166401D01*
X105977986Y-168304294D01*
X105751866Y-168489866D01*
X105566294Y-168715986D01*
X105537000Y-168770791D01*
X105507706Y-168715986D01*
X105322134Y-168489866D01*
X105096014Y-168304294D01*
X104838034Y-168166401D01*
X104558111Y-168081487D01*
X104339950Y-168060000D01*
X104194050Y-168060000D01*
X103975889Y-168081487D01*
X103695966Y-168166401D01*
X103437986Y-168304294D01*
X103211866Y-168489866D01*
X103026294Y-168715986D01*
X102997000Y-168770791D01*
X102967706Y-168715986D01*
X102782134Y-168489866D01*
X102556014Y-168304294D01*
X102298034Y-168166401D01*
X102018111Y-168081487D01*
X101799950Y-168060000D01*
X101654050Y-168060000D01*
X101435889Y-168081487D01*
X101155966Y-168166401D01*
X100897986Y-168304294D01*
X100671866Y-168489866D01*
X100486294Y-168715986D01*
X100457000Y-168770791D01*
X100427706Y-168715986D01*
X100242134Y-168489866D01*
X100016014Y-168304294D01*
X99758034Y-168166401D01*
X99478111Y-168081487D01*
X99259950Y-168060000D01*
X99114050Y-168060000D01*
X98895889Y-168081487D01*
X98615966Y-168166401D01*
X98357986Y-168304294D01*
X98131866Y-168489866D01*
X97946294Y-168715986D01*
X97917000Y-168770791D01*
X97887706Y-168715986D01*
X97702134Y-168489866D01*
X97476014Y-168304294D01*
X97218034Y-168166401D01*
X96938111Y-168081487D01*
X96719950Y-168060000D01*
X96574050Y-168060000D01*
X96355889Y-168081487D01*
X96075966Y-168166401D01*
X95817986Y-168304294D01*
X95591866Y-168489866D01*
X95406294Y-168715986D01*
X95377000Y-168770791D01*
X95347706Y-168715986D01*
X95162134Y-168489866D01*
X94936014Y-168304294D01*
X94678034Y-168166401D01*
X94398111Y-168081487D01*
X94179950Y-168060000D01*
X94034050Y-168060000D01*
X93815889Y-168081487D01*
X93535966Y-168166401D01*
X93277986Y-168304294D01*
X93051866Y-168489866D01*
X92866294Y-168715986D01*
X92837000Y-168770791D01*
X92807706Y-168715986D01*
X92622134Y-168489866D01*
X92396014Y-168304294D01*
X92138034Y-168166401D01*
X91858111Y-168081487D01*
X91639950Y-168060000D01*
X91494050Y-168060000D01*
X91275889Y-168081487D01*
X90995966Y-168166401D01*
X90737986Y-168304294D01*
X90511866Y-168489866D01*
X90326294Y-168715986D01*
X90297000Y-168770791D01*
X90267706Y-168715986D01*
X90082134Y-168489866D01*
X89856014Y-168304294D01*
X89598034Y-168166401D01*
X89318111Y-168081487D01*
X89099950Y-168060000D01*
X88954050Y-168060000D01*
X88735889Y-168081487D01*
X88455966Y-168166401D01*
X88197986Y-168304294D01*
X87971866Y-168489866D01*
X87786294Y-168715986D01*
X87648401Y-168973966D01*
X87563487Y-169253889D01*
X87534815Y-169545000D01*
X82616711Y-169545000D01*
X82718937Y-169442774D01*
X82832205Y-169273256D01*
X82910226Y-169084898D01*
X82950000Y-168884939D01*
X82950000Y-168681061D01*
X82910226Y-168481102D01*
X82832205Y-168292744D01*
X82718937Y-168123226D01*
X82574774Y-167979063D01*
X82405256Y-167865795D01*
X82216898Y-167787774D01*
X82016939Y-167748000D01*
X81813061Y-167748000D01*
X81613102Y-167787774D01*
X81424744Y-167865795D01*
X81255226Y-167979063D01*
X81111063Y-168123226D01*
X80997795Y-168292744D01*
X80919774Y-168481102D01*
X80914026Y-168510000D01*
X80797061Y-168510000D01*
X80597102Y-168549774D01*
X80408744Y-168627795D01*
X80239226Y-168741063D01*
X80095063Y-168885226D01*
X79981795Y-169054744D01*
X79903774Y-169243102D01*
X79864000Y-169443061D01*
X76860000Y-169443061D01*
X76860000Y-164821890D01*
X79965524Y-164821890D01*
X80010175Y-164969099D01*
X80135359Y-165231920D01*
X80309412Y-165465269D01*
X80525645Y-165660178D01*
X80775748Y-165809157D01*
X81050109Y-165906481D01*
X81280000Y-165785814D01*
X81280000Y-164592000D01*
X80086845Y-164592000D01*
X79965524Y-164821890D01*
X76860000Y-164821890D01*
X76860000Y-136525000D01*
X79914815Y-136525000D01*
X79943487Y-136816111D01*
X80028401Y-137096034D01*
X80166294Y-137354014D01*
X80351866Y-137580134D01*
X80577986Y-137765706D01*
X80632791Y-137795000D01*
X80577986Y-137824294D01*
X80351866Y-138009866D01*
X80166294Y-138235986D01*
X80028401Y-138493966D01*
X79943487Y-138773889D01*
X79914815Y-139065000D01*
X79943487Y-139356111D01*
X80028401Y-139636034D01*
X80166294Y-139894014D01*
X80351866Y-140120134D01*
X80577986Y-140305706D01*
X80632791Y-140335000D01*
X80577986Y-140364294D01*
X80351866Y-140549866D01*
X80166294Y-140775986D01*
X80028401Y-141033966D01*
X79943487Y-141313889D01*
X79914815Y-141605000D01*
X79943487Y-141896111D01*
X80028401Y-142176034D01*
X80166294Y-142434014D01*
X80351866Y-142660134D01*
X80577986Y-142845706D01*
X80632791Y-142875000D01*
X80577986Y-142904294D01*
X80351866Y-143089866D01*
X80166294Y-143315986D01*
X80028401Y-143573966D01*
X79943487Y-143853889D01*
X79914815Y-144145000D01*
X79943487Y-144436111D01*
X80028401Y-144716034D01*
X80166294Y-144974014D01*
X80351866Y-145200134D01*
X80577986Y-145385706D01*
X80632791Y-145415000D01*
X80577986Y-145444294D01*
X80351866Y-145629866D01*
X80166294Y-145855986D01*
X80028401Y-146113966D01*
X79943487Y-146393889D01*
X79914815Y-146685000D01*
X79943487Y-146976111D01*
X80028401Y-147256034D01*
X80166294Y-147514014D01*
X80351866Y-147740134D01*
X80577986Y-147925706D01*
X80632791Y-147955000D01*
X80577986Y-147984294D01*
X80351866Y-148169866D01*
X80166294Y-148395986D01*
X80028401Y-148653966D01*
X79943487Y-148933889D01*
X79914815Y-149225000D01*
X79943487Y-149516111D01*
X80028401Y-149796034D01*
X80166294Y-150054014D01*
X80351866Y-150280134D01*
X80577986Y-150465706D01*
X80632791Y-150495000D01*
X80577986Y-150524294D01*
X80351866Y-150709866D01*
X80166294Y-150935986D01*
X80028401Y-151193966D01*
X79943487Y-151473889D01*
X79914815Y-151765000D01*
X79943487Y-152056111D01*
X80028401Y-152336034D01*
X80166294Y-152594014D01*
X80351866Y-152820134D01*
X80577986Y-153005706D01*
X80632791Y-153035000D01*
X80577986Y-153064294D01*
X80351866Y-153249866D01*
X80166294Y-153475986D01*
X80028401Y-153733966D01*
X79943487Y-154013889D01*
X79914815Y-154305000D01*
X79943487Y-154596111D01*
X80028401Y-154876034D01*
X80166294Y-155134014D01*
X80351866Y-155360134D01*
X80577986Y-155545706D01*
X80632791Y-155575000D01*
X80577986Y-155604294D01*
X80351866Y-155789866D01*
X80166294Y-156015986D01*
X80028401Y-156273966D01*
X79943487Y-156553889D01*
X79914815Y-156845000D01*
X79943487Y-157136111D01*
X80028401Y-157416034D01*
X80166294Y-157674014D01*
X80351866Y-157900134D01*
X80577986Y-158085706D01*
X80632791Y-158115000D01*
X80577986Y-158144294D01*
X80351866Y-158329866D01*
X80166294Y-158555986D01*
X80028401Y-158813966D01*
X79943487Y-159093889D01*
X79914815Y-159385000D01*
X79943487Y-159676111D01*
X80028401Y-159956034D01*
X80166294Y-160214014D01*
X80351866Y-160440134D01*
X80577986Y-160625706D01*
X80632791Y-160655000D01*
X80577986Y-160684294D01*
X80351866Y-160869866D01*
X80166294Y-161095986D01*
X80028401Y-161353966D01*
X79943487Y-161633889D01*
X79914815Y-161925000D01*
X79943487Y-162216111D01*
X80028401Y-162496034D01*
X80166294Y-162754014D01*
X80351866Y-162980134D01*
X80577986Y-163165706D01*
X80642523Y-163200201D01*
X80525645Y-163269822D01*
X80309412Y-163464731D01*
X80135359Y-163698080D01*
X80010175Y-163960901D01*
X79965524Y-164108110D01*
X80086845Y-164338000D01*
X81280000Y-164338000D01*
X81280000Y-164318000D01*
X81534000Y-164318000D01*
X81534000Y-164338000D01*
X81554000Y-164338000D01*
X81554000Y-164592000D01*
X81534000Y-164592000D01*
X81534000Y-165785814D01*
X81763891Y-165906481D01*
X82038252Y-165809157D01*
X82288355Y-165660178D01*
X82504588Y-165465269D01*
X82675416Y-165236244D01*
X82706294Y-165294014D01*
X82891866Y-165520134D01*
X83117986Y-165705706D01*
X83375966Y-165843599D01*
X83655889Y-165928513D01*
X83874050Y-165950000D01*
X84019950Y-165950000D01*
X84238111Y-165928513D01*
X84518034Y-165843599D01*
X84776014Y-165705706D01*
X85002134Y-165520134D01*
X85187706Y-165294014D01*
X85325599Y-165036034D01*
X85410513Y-164756111D01*
X85439185Y-164465000D01*
X85429145Y-164363061D01*
X102216000Y-164363061D01*
X102216000Y-164566939D01*
X102255774Y-164766898D01*
X102333795Y-164955256D01*
X102447063Y-165124774D01*
X102591226Y-165268937D01*
X102760744Y-165382205D01*
X102949102Y-165460226D01*
X103149061Y-165500000D01*
X103352939Y-165500000D01*
X103552898Y-165460226D01*
X103741256Y-165382205D01*
X103910774Y-165268937D01*
X104054937Y-165124774D01*
X104168205Y-164955256D01*
X104246226Y-164766898D01*
X104286000Y-164566939D01*
X104286000Y-164363061D01*
X104246226Y-164163102D01*
X104168205Y-163974744D01*
X104054937Y-163805226D01*
X103910774Y-163661063D01*
X103741256Y-163547795D01*
X103552898Y-163469774D01*
X103352939Y-163430000D01*
X103149061Y-163430000D01*
X102949102Y-163469774D01*
X102760744Y-163547795D01*
X102591226Y-163661063D01*
X102447063Y-163805226D01*
X102333795Y-163974744D01*
X102255774Y-164163102D01*
X102216000Y-164363061D01*
X85429145Y-164363061D01*
X85410513Y-164173889D01*
X85325599Y-163893966D01*
X85187706Y-163635986D01*
X85002134Y-163409866D01*
X84776014Y-163224294D01*
X84721209Y-163195000D01*
X84776014Y-163165706D01*
X85002134Y-162980134D01*
X85187706Y-162754014D01*
X85325599Y-162496034D01*
X85410513Y-162216111D01*
X85439185Y-161925000D01*
X85410513Y-161633889D01*
X85325599Y-161353966D01*
X85187706Y-161095986D01*
X85002134Y-160869866D01*
X84776014Y-160684294D01*
X84721209Y-160655000D01*
X84776014Y-160625706D01*
X85002134Y-160440134D01*
X85187706Y-160214014D01*
X85325599Y-159956034D01*
X85410513Y-159676111D01*
X85439185Y-159385000D01*
X85410513Y-159093889D01*
X85325599Y-158813966D01*
X85187706Y-158555986D01*
X85002134Y-158329866D01*
X84776014Y-158144294D01*
X84721209Y-158115000D01*
X84776014Y-158085706D01*
X85002134Y-157900134D01*
X85187706Y-157674014D01*
X85325599Y-157416034D01*
X85410513Y-157136111D01*
X85411699Y-157124061D01*
X99549000Y-157124061D01*
X99549000Y-157327939D01*
X99588774Y-157527898D01*
X99666795Y-157716256D01*
X99780063Y-157885774D01*
X99924226Y-158029937D01*
X100093744Y-158143205D01*
X100282102Y-158221226D01*
X100482061Y-158261000D01*
X100685939Y-158261000D01*
X100885898Y-158221226D01*
X101074256Y-158143205D01*
X101243774Y-158029937D01*
X101387937Y-157885774D01*
X101501205Y-157716256D01*
X101579226Y-157527898D01*
X101619000Y-157327939D01*
X101619000Y-157218533D01*
X101752061Y-157245000D01*
X101955939Y-157245000D01*
X102155898Y-157205226D01*
X102343000Y-157127725D01*
X102343000Y-157327939D01*
X102382774Y-157527898D01*
X102460795Y-157716256D01*
X102515080Y-157797500D01*
X102460795Y-157878744D01*
X102382774Y-158067102D01*
X102343000Y-158267061D01*
X102343000Y-158470939D01*
X102382774Y-158670898D01*
X102460795Y-158859256D01*
X102574063Y-159028774D01*
X102718226Y-159172937D01*
X102887744Y-159286205D01*
X103076102Y-159364226D01*
X103276061Y-159404000D01*
X103479939Y-159404000D01*
X103679898Y-159364226D01*
X103868256Y-159286205D01*
X104037774Y-159172937D01*
X104181937Y-159028774D01*
X104295205Y-158859256D01*
X104373226Y-158670898D01*
X104413000Y-158470939D01*
X104413000Y-158267061D01*
X104411794Y-158261000D01*
X104495939Y-158261000D01*
X104695898Y-158221226D01*
X104884256Y-158143205D01*
X105053774Y-158029937D01*
X105197937Y-157885774D01*
X105311205Y-157716256D01*
X105389226Y-157527898D01*
X105429000Y-157327939D01*
X105429000Y-157124061D01*
X105389226Y-156924102D01*
X105311205Y-156735744D01*
X105256920Y-156654500D01*
X105311205Y-156573256D01*
X105389226Y-156384898D01*
X105429000Y-156184939D01*
X105429000Y-155981061D01*
X105389226Y-155781102D01*
X105311205Y-155592744D01*
X105256920Y-155511500D01*
X105311205Y-155430256D01*
X105389226Y-155241898D01*
X105429000Y-155041939D01*
X105429000Y-154838061D01*
X105389226Y-154638102D01*
X105311205Y-154449744D01*
X105197937Y-154280226D01*
X105053774Y-154136063D01*
X104884256Y-154022795D01*
X104695898Y-153944774D01*
X104495939Y-153905000D01*
X104292061Y-153905000D01*
X104092102Y-153944774D01*
X103903744Y-154022795D01*
X103886000Y-154034651D01*
X103868256Y-154022795D01*
X103679898Y-153944774D01*
X103479939Y-153905000D01*
X103276061Y-153905000D01*
X103076102Y-153944774D01*
X102887744Y-154022795D01*
X102718226Y-154136063D01*
X102574063Y-154280226D01*
X102460795Y-154449744D01*
X102382774Y-154638102D01*
X102343000Y-154838061D01*
X102343000Y-155041939D01*
X102382774Y-155241898D01*
X102426665Y-155347859D01*
X102344256Y-155292795D01*
X102155898Y-155214774D01*
X101955939Y-155175000D01*
X101752061Y-155175000D01*
X101552102Y-155214774D01*
X101363744Y-155292795D01*
X101194226Y-155406063D01*
X101050063Y-155550226D01*
X100936795Y-155719744D01*
X100858774Y-155908102D01*
X100819000Y-156108061D01*
X100819000Y-156217467D01*
X100685939Y-156191000D01*
X100482061Y-156191000D01*
X100282102Y-156230774D01*
X100093744Y-156308795D01*
X99924226Y-156422063D01*
X99780063Y-156566226D01*
X99666795Y-156735744D01*
X99588774Y-156924102D01*
X99549000Y-157124061D01*
X85411699Y-157124061D01*
X85439185Y-156845000D01*
X85410513Y-156553889D01*
X85325599Y-156273966D01*
X85187706Y-156015986D01*
X85002134Y-155789866D01*
X84776014Y-155604294D01*
X84721209Y-155575000D01*
X84776014Y-155545706D01*
X85002134Y-155360134D01*
X85187706Y-155134014D01*
X85325599Y-154876034D01*
X85410513Y-154596111D01*
X85439185Y-154305000D01*
X85410513Y-154013889D01*
X85325599Y-153733966D01*
X85187706Y-153475986D01*
X85002134Y-153249866D01*
X84776014Y-153064294D01*
X84721209Y-153035000D01*
X84776014Y-153005706D01*
X85002134Y-152820134D01*
X85187706Y-152594014D01*
X85325599Y-152336034D01*
X85410513Y-152056111D01*
X85439185Y-151765000D01*
X85410513Y-151473889D01*
X85352323Y-151282061D01*
X99676000Y-151282061D01*
X99676000Y-151485939D01*
X99715774Y-151685898D01*
X99793795Y-151874256D01*
X99805651Y-151892000D01*
X99793795Y-151909744D01*
X99715774Y-152098102D01*
X99676000Y-152298061D01*
X99676000Y-152501939D01*
X99715774Y-152701898D01*
X99793795Y-152890256D01*
X99907063Y-153059774D01*
X100051226Y-153203937D01*
X100220744Y-153317205D01*
X100409102Y-153395226D01*
X100609061Y-153435000D01*
X100812939Y-153435000D01*
X101012898Y-153395226D01*
X101201256Y-153317205D01*
X101219000Y-153305349D01*
X101236744Y-153317205D01*
X101425102Y-153395226D01*
X101625061Y-153435000D01*
X101828939Y-153435000D01*
X102028898Y-153395226D01*
X102217256Y-153317205D01*
X102298500Y-153262920D01*
X102379744Y-153317205D01*
X102568102Y-153395226D01*
X102768061Y-153435000D01*
X102971939Y-153435000D01*
X103171898Y-153395226D01*
X103360256Y-153317205D01*
X103529774Y-153203937D01*
X103673937Y-153059774D01*
X103787205Y-152890256D01*
X103865226Y-152701898D01*
X103905000Y-152501939D01*
X103905000Y-152298061D01*
X103898263Y-152264193D01*
X104038061Y-152292000D01*
X104241939Y-152292000D01*
X104381737Y-152264193D01*
X104375000Y-152298061D01*
X104375000Y-152501939D01*
X104414774Y-152701898D01*
X104492795Y-152890256D01*
X104606063Y-153059774D01*
X104750226Y-153203937D01*
X104919744Y-153317205D01*
X105108102Y-153395226D01*
X105308061Y-153435000D01*
X105511939Y-153435000D01*
X105711898Y-153395226D01*
X105899000Y-153317725D01*
X105899000Y-153517939D01*
X105938774Y-153717898D01*
X106016795Y-153906256D01*
X106130063Y-154075774D01*
X106274226Y-154219937D01*
X106401532Y-154305000D01*
X106274226Y-154390063D01*
X106130063Y-154534226D01*
X106016795Y-154703744D01*
X105938774Y-154892102D01*
X105899000Y-155092061D01*
X105899000Y-155295939D01*
X105938774Y-155495898D01*
X106016795Y-155684256D01*
X106130063Y-155853774D01*
X106274226Y-155997937D01*
X106443744Y-156111205D01*
X106632102Y-156189226D01*
X106832061Y-156229000D01*
X107035939Y-156229000D01*
X107235898Y-156189226D01*
X107424256Y-156111205D01*
X107593774Y-155997937D01*
X107737937Y-155853774D01*
X107851205Y-155684256D01*
X107929226Y-155495898D01*
X107969000Y-155295939D01*
X107969000Y-155092061D01*
X107929226Y-154892102D01*
X107851205Y-154703744D01*
X107737937Y-154534226D01*
X107593774Y-154390063D01*
X107466468Y-154305000D01*
X107593774Y-154219937D01*
X107737937Y-154075774D01*
X107851205Y-153906256D01*
X107929226Y-153717898D01*
X107969000Y-153517939D01*
X107969000Y-153314061D01*
X107929226Y-153114102D01*
X107851205Y-152925744D01*
X107737937Y-152756226D01*
X107593774Y-152612063D01*
X107424256Y-152498795D01*
X107235898Y-152420774D01*
X107035939Y-152381000D01*
X106832061Y-152381000D01*
X106632102Y-152420774D01*
X106445000Y-152498275D01*
X106445000Y-152298061D01*
X106405226Y-152098102D01*
X106327205Y-151909744D01*
X106213937Y-151740226D01*
X106069774Y-151596063D01*
X105900256Y-151482795D01*
X105711898Y-151404774D01*
X105511939Y-151365000D01*
X105308061Y-151365000D01*
X105168263Y-151392807D01*
X105175000Y-151358939D01*
X105175000Y-151155061D01*
X105135226Y-150955102D01*
X105057205Y-150766744D01*
X104943937Y-150597226D01*
X104799774Y-150453063D01*
X104630256Y-150339795D01*
X104441898Y-150261774D01*
X104241939Y-150222000D01*
X104038061Y-150222000D01*
X103838102Y-150261774D01*
X103649744Y-150339795D01*
X103480226Y-150453063D01*
X103336063Y-150597226D01*
X103222795Y-150766744D01*
X103144774Y-150955102D01*
X103105000Y-151155061D01*
X103105000Y-151358939D01*
X103111737Y-151392807D01*
X102971939Y-151365000D01*
X102768061Y-151365000D01*
X102762000Y-151366206D01*
X102762000Y-151282061D01*
X102722226Y-151082102D01*
X102644205Y-150893744D01*
X102530937Y-150724226D01*
X102386774Y-150580063D01*
X102217256Y-150466795D01*
X102028898Y-150388774D01*
X101828939Y-150349000D01*
X101625061Y-150349000D01*
X101425102Y-150388774D01*
X101236744Y-150466795D01*
X101219000Y-150478651D01*
X101201256Y-150466795D01*
X101012898Y-150388774D01*
X100812939Y-150349000D01*
X100609061Y-150349000D01*
X100409102Y-150388774D01*
X100220744Y-150466795D01*
X100051226Y-150580063D01*
X99907063Y-150724226D01*
X99793795Y-150893744D01*
X99715774Y-151082102D01*
X99676000Y-151282061D01*
X85352323Y-151282061D01*
X85325599Y-151193966D01*
X85187706Y-150935986D01*
X85002134Y-150709866D01*
X84776014Y-150524294D01*
X84721209Y-150495000D01*
X84776014Y-150465706D01*
X85002134Y-150280134D01*
X85187706Y-150054014D01*
X85325599Y-149796034D01*
X85410513Y-149516111D01*
X85439185Y-149225000D01*
X85410513Y-148933889D01*
X85325599Y-148653966D01*
X85187706Y-148395986D01*
X85002134Y-148169866D01*
X84776014Y-147984294D01*
X84721209Y-147955000D01*
X84776014Y-147925706D01*
X85002134Y-147740134D01*
X85187706Y-147514014D01*
X85325599Y-147256034D01*
X85410513Y-146976111D01*
X85439185Y-146685000D01*
X85410513Y-146393889D01*
X85325599Y-146113966D01*
X85187706Y-145855986D01*
X85002134Y-145629866D01*
X84776014Y-145444294D01*
X84721209Y-145415000D01*
X84776014Y-145385706D01*
X85002134Y-145200134D01*
X85187706Y-144974014D01*
X85325599Y-144716034D01*
X85337118Y-144678061D01*
X102216000Y-144678061D01*
X102216000Y-144881939D01*
X102255774Y-145081898D01*
X102333795Y-145270256D01*
X102447063Y-145439774D01*
X102591226Y-145583937D01*
X102760744Y-145697205D01*
X102949102Y-145775226D01*
X103149061Y-145815000D01*
X103352939Y-145815000D01*
X103552898Y-145775226D01*
X103741256Y-145697205D01*
X103910774Y-145583937D01*
X104054937Y-145439774D01*
X104168205Y-145270256D01*
X104246226Y-145081898D01*
X104286000Y-144881939D01*
X104286000Y-144678061D01*
X104246226Y-144478102D01*
X104168205Y-144289744D01*
X104054937Y-144120226D01*
X103910774Y-143976063D01*
X103741256Y-143862795D01*
X103552898Y-143784774D01*
X103352939Y-143745000D01*
X103149061Y-143745000D01*
X102949102Y-143784774D01*
X102760744Y-143862795D01*
X102591226Y-143976063D01*
X102447063Y-144120226D01*
X102333795Y-144289744D01*
X102255774Y-144478102D01*
X102216000Y-144678061D01*
X85337118Y-144678061D01*
X85410513Y-144436111D01*
X85439185Y-144145000D01*
X85410513Y-143853889D01*
X85325599Y-143573966D01*
X85187706Y-143315986D01*
X85002134Y-143089866D01*
X84776014Y-142904294D01*
X84721209Y-142875000D01*
X84776014Y-142845706D01*
X85002134Y-142660134D01*
X85187706Y-142434014D01*
X85325599Y-142176034D01*
X85410513Y-141896111D01*
X85439185Y-141605000D01*
X85410513Y-141313889D01*
X85325599Y-141033966D01*
X85187706Y-140775986D01*
X85002134Y-140549866D01*
X84776014Y-140364294D01*
X84721209Y-140335000D01*
X84776014Y-140305706D01*
X85002134Y-140120134D01*
X85187706Y-139894014D01*
X85325599Y-139636034D01*
X85375643Y-139471061D01*
X98406000Y-139471061D01*
X98406000Y-139674939D01*
X98445774Y-139874898D01*
X98523795Y-140063256D01*
X98637063Y-140232774D01*
X98781226Y-140376937D01*
X98950744Y-140490205D01*
X99139102Y-140568226D01*
X99339061Y-140608000D01*
X99542939Y-140608000D01*
X99742898Y-140568226D01*
X99931256Y-140490205D01*
X100100774Y-140376937D01*
X100244937Y-140232774D01*
X100358205Y-140063256D01*
X100436226Y-139874898D01*
X100476000Y-139674939D01*
X100476000Y-139598061D01*
X107804000Y-139598061D01*
X107804000Y-139801939D01*
X107843774Y-140001898D01*
X107921795Y-140190256D01*
X108035063Y-140359774D01*
X108179226Y-140503937D01*
X108348744Y-140617205D01*
X108537102Y-140695226D01*
X108737061Y-140735000D01*
X108940939Y-140735000D01*
X109140898Y-140695226D01*
X109329256Y-140617205D01*
X109498774Y-140503937D01*
X109642937Y-140359774D01*
X109756205Y-140190256D01*
X109834226Y-140001898D01*
X109874000Y-139801939D01*
X109874000Y-139598061D01*
X109834226Y-139398102D01*
X109756205Y-139209744D01*
X109642937Y-139040226D01*
X109498774Y-138896063D01*
X109329256Y-138782795D01*
X109140898Y-138704774D01*
X108940939Y-138665000D01*
X108737061Y-138665000D01*
X108537102Y-138704774D01*
X108348744Y-138782795D01*
X108179226Y-138896063D01*
X108035063Y-139040226D01*
X107921795Y-139209744D01*
X107843774Y-139398102D01*
X107804000Y-139598061D01*
X100476000Y-139598061D01*
X100476000Y-139471061D01*
X100436226Y-139271102D01*
X100358205Y-139082744D01*
X100244937Y-138913226D01*
X100100774Y-138769063D01*
X99931256Y-138655795D01*
X99742898Y-138577774D01*
X99542939Y-138538000D01*
X99339061Y-138538000D01*
X99139102Y-138577774D01*
X98950744Y-138655795D01*
X98781226Y-138769063D01*
X98637063Y-138913226D01*
X98523795Y-139082744D01*
X98445774Y-139271102D01*
X98406000Y-139471061D01*
X85375643Y-139471061D01*
X85410513Y-139356111D01*
X85439185Y-139065000D01*
X85410513Y-138773889D01*
X85325599Y-138493966D01*
X85187706Y-138235986D01*
X85002134Y-138009866D01*
X84776014Y-137824294D01*
X84721209Y-137795000D01*
X84776014Y-137765706D01*
X85002134Y-137580134D01*
X85187706Y-137354014D01*
X85325599Y-137096034D01*
X85410513Y-136816111D01*
X85439185Y-136525000D01*
X85410513Y-136233889D01*
X85325599Y-135953966D01*
X85187706Y-135695986D01*
X85002134Y-135469866D01*
X84776014Y-135284294D01*
X84721209Y-135255000D01*
X84776014Y-135225706D01*
X85002134Y-135040134D01*
X85187706Y-134814014D01*
X85325599Y-134556034D01*
X85337118Y-134518061D01*
X98279000Y-134518061D01*
X98279000Y-134721939D01*
X98318774Y-134921898D01*
X98396795Y-135110256D01*
X98510063Y-135279774D01*
X98654226Y-135423937D01*
X98823744Y-135537205D01*
X99012102Y-135615226D01*
X99212061Y-135655000D01*
X99415939Y-135655000D01*
X99615898Y-135615226D01*
X99804256Y-135537205D01*
X99973774Y-135423937D01*
X100117937Y-135279774D01*
X100231205Y-135110256D01*
X100309226Y-134921898D01*
X100330000Y-134817459D01*
X100350774Y-134921898D01*
X100428795Y-135110256D01*
X100542063Y-135279774D01*
X100686226Y-135423937D01*
X100855744Y-135537205D01*
X101044102Y-135615226D01*
X101244061Y-135655000D01*
X101447939Y-135655000D01*
X101647898Y-135615226D01*
X101836256Y-135537205D01*
X102005774Y-135423937D01*
X102149937Y-135279774D01*
X102263205Y-135110256D01*
X102341226Y-134921898D01*
X102381000Y-134721939D01*
X102381000Y-134518061D01*
X106026000Y-134518061D01*
X106026000Y-134721939D01*
X106065774Y-134921898D01*
X106143795Y-135110256D01*
X106257063Y-135279774D01*
X106401226Y-135423937D01*
X106570744Y-135537205D01*
X106759102Y-135615226D01*
X106959061Y-135655000D01*
X107162939Y-135655000D01*
X107362898Y-135615226D01*
X107551256Y-135537205D01*
X107720774Y-135423937D01*
X107864937Y-135279774D01*
X107978205Y-135110256D01*
X108013500Y-135025047D01*
X108048795Y-135110256D01*
X108162063Y-135279774D01*
X108306226Y-135423937D01*
X108475744Y-135537205D01*
X108664102Y-135615226D01*
X108864061Y-135655000D01*
X109067939Y-135655000D01*
X109267898Y-135615226D01*
X109456256Y-135537205D01*
X109625774Y-135423937D01*
X109769937Y-135279774D01*
X109883205Y-135110256D01*
X109961226Y-134921898D01*
X110001000Y-134721939D01*
X110001000Y-134518061D01*
X109961226Y-134318102D01*
X109883205Y-134129744D01*
X109786491Y-133985000D01*
X123094815Y-133985000D01*
X123123487Y-134276111D01*
X123208401Y-134556034D01*
X123346294Y-134814014D01*
X123531866Y-135040134D01*
X123757986Y-135225706D01*
X123812791Y-135255000D01*
X123757986Y-135284294D01*
X123531866Y-135469866D01*
X123346294Y-135695986D01*
X123208401Y-135953966D01*
X123123487Y-136233889D01*
X123094815Y-136525000D01*
X123123487Y-136816111D01*
X123208401Y-137096034D01*
X123346294Y-137354014D01*
X123531866Y-137580134D01*
X123757986Y-137765706D01*
X123812791Y-137795000D01*
X123757986Y-137824294D01*
X123531866Y-138009866D01*
X123346294Y-138235986D01*
X123208401Y-138493966D01*
X123123487Y-138773889D01*
X123094815Y-139065000D01*
X123123487Y-139356111D01*
X123208401Y-139636034D01*
X123346294Y-139894014D01*
X123531866Y-140120134D01*
X123757986Y-140305706D01*
X123812791Y-140335000D01*
X123757986Y-140364294D01*
X123531866Y-140549866D01*
X123346294Y-140775986D01*
X123208401Y-141033966D01*
X123123487Y-141313889D01*
X123094815Y-141605000D01*
X123123487Y-141896111D01*
X123208401Y-142176034D01*
X123346294Y-142434014D01*
X123531866Y-142660134D01*
X123757986Y-142845706D01*
X123812791Y-142875000D01*
X123757986Y-142904294D01*
X123531866Y-143089866D01*
X123346294Y-143315986D01*
X123208401Y-143573966D01*
X123123487Y-143853889D01*
X123094815Y-144145000D01*
X123123487Y-144436111D01*
X123208401Y-144716034D01*
X123346294Y-144974014D01*
X123531866Y-145200134D01*
X123757986Y-145385706D01*
X123812791Y-145415000D01*
X123757986Y-145444294D01*
X123531866Y-145629866D01*
X123346294Y-145855986D01*
X123208401Y-146113966D01*
X123123487Y-146393889D01*
X123094815Y-146685000D01*
X123123487Y-146976111D01*
X123208401Y-147256034D01*
X123346294Y-147514014D01*
X123531866Y-147740134D01*
X123757986Y-147925706D01*
X123812791Y-147955000D01*
X123757986Y-147984294D01*
X123531866Y-148169866D01*
X123346294Y-148395986D01*
X123208401Y-148653966D01*
X123123487Y-148933889D01*
X123094815Y-149225000D01*
X123123487Y-149516111D01*
X123208401Y-149796034D01*
X123346294Y-150054014D01*
X123531866Y-150280134D01*
X123757986Y-150465706D01*
X123812791Y-150495000D01*
X123757986Y-150524294D01*
X123531866Y-150709866D01*
X123346294Y-150935986D01*
X123208401Y-151193966D01*
X123123487Y-151473889D01*
X123094815Y-151765000D01*
X123123487Y-152056111D01*
X123208401Y-152336034D01*
X123346294Y-152594014D01*
X123531866Y-152820134D01*
X123757986Y-153005706D01*
X123812791Y-153035000D01*
X123757986Y-153064294D01*
X123531866Y-153249866D01*
X123346294Y-153475986D01*
X123208401Y-153733966D01*
X123123487Y-154013889D01*
X123094815Y-154305000D01*
X123123487Y-154596111D01*
X123208401Y-154876034D01*
X123346294Y-155134014D01*
X123531866Y-155360134D01*
X123757986Y-155545706D01*
X123812791Y-155575000D01*
X123757986Y-155604294D01*
X123531866Y-155789866D01*
X123346294Y-156015986D01*
X123208401Y-156273966D01*
X123123487Y-156553889D01*
X123094815Y-156845000D01*
X123123487Y-157136111D01*
X123208401Y-157416034D01*
X123346294Y-157674014D01*
X123531866Y-157900134D01*
X123757986Y-158085706D01*
X123812791Y-158115000D01*
X123757986Y-158144294D01*
X123531866Y-158329866D01*
X123346294Y-158555986D01*
X123208401Y-158813966D01*
X123123487Y-159093889D01*
X123094815Y-159385000D01*
X123123487Y-159676111D01*
X123208401Y-159956034D01*
X123346294Y-160214014D01*
X123531866Y-160440134D01*
X123757986Y-160625706D01*
X123812791Y-160655000D01*
X123757986Y-160684294D01*
X123531866Y-160869866D01*
X123346294Y-161095986D01*
X123208401Y-161353966D01*
X123123487Y-161633889D01*
X123094815Y-161925000D01*
X123123487Y-162216111D01*
X123208401Y-162496034D01*
X123346294Y-162754014D01*
X123531866Y-162980134D01*
X123757986Y-163165706D01*
X123812791Y-163195000D01*
X123757986Y-163224294D01*
X123531866Y-163409866D01*
X123346294Y-163635986D01*
X123208401Y-163893966D01*
X123123487Y-164173889D01*
X123094815Y-164465000D01*
X123123487Y-164756111D01*
X123208401Y-165036034D01*
X123346294Y-165294014D01*
X123531866Y-165520134D01*
X123757986Y-165705706D01*
X124015966Y-165843599D01*
X124295889Y-165928513D01*
X124514050Y-165950000D01*
X124659950Y-165950000D01*
X124878111Y-165928513D01*
X125158034Y-165843599D01*
X125416014Y-165705706D01*
X125642134Y-165520134D01*
X125666607Y-165490313D01*
X125687498Y-165559180D01*
X125746463Y-165669494D01*
X125825815Y-165766185D01*
X125922506Y-165845537D01*
X126032820Y-165904502D01*
X126152518Y-165940812D01*
X126277000Y-165953072D01*
X126841250Y-165950000D01*
X127000000Y-165791250D01*
X127000000Y-164592000D01*
X127254000Y-164592000D01*
X127254000Y-165791250D01*
X127412750Y-165950000D01*
X127977000Y-165953072D01*
X128101482Y-165940812D01*
X128221180Y-165904502D01*
X128331494Y-165845537D01*
X128428185Y-165766185D01*
X128507537Y-165669494D01*
X128566502Y-165559180D01*
X128602812Y-165439482D01*
X128615072Y-165315000D01*
X128612000Y-164750750D01*
X128453250Y-164592000D01*
X127254000Y-164592000D01*
X127000000Y-164592000D01*
X126980000Y-164592000D01*
X126980000Y-164338000D01*
X127000000Y-164338000D01*
X127000000Y-164318000D01*
X127254000Y-164318000D01*
X127254000Y-164338000D01*
X128453250Y-164338000D01*
X128612000Y-164179250D01*
X128615072Y-163615000D01*
X128602812Y-163490518D01*
X128566502Y-163370820D01*
X128507537Y-163260506D01*
X128428185Y-163163815D01*
X128331494Y-163084463D01*
X128221180Y-163025498D01*
X128152313Y-163004607D01*
X128182134Y-162980134D01*
X128367706Y-162754014D01*
X128505599Y-162496034D01*
X128590513Y-162216111D01*
X128619185Y-161925000D01*
X128590513Y-161633889D01*
X128505599Y-161353966D01*
X128367706Y-161095986D01*
X128182134Y-160869866D01*
X127956014Y-160684294D01*
X127901209Y-160655000D01*
X127956014Y-160625706D01*
X128182134Y-160440134D01*
X128367706Y-160214014D01*
X128505599Y-159956034D01*
X128590513Y-159676111D01*
X128619185Y-159385000D01*
X128590513Y-159093889D01*
X128505599Y-158813966D01*
X128367706Y-158555986D01*
X128182134Y-158329866D01*
X127956014Y-158144294D01*
X127901209Y-158115000D01*
X127956014Y-158085706D01*
X128182134Y-157900134D01*
X128367706Y-157674014D01*
X128505599Y-157416034D01*
X128590513Y-157136111D01*
X128619185Y-156845000D01*
X128590513Y-156553889D01*
X128505599Y-156273966D01*
X128367706Y-156015986D01*
X128182134Y-155789866D01*
X127956014Y-155604294D01*
X127901209Y-155575000D01*
X127956014Y-155545706D01*
X128182134Y-155360134D01*
X128367706Y-155134014D01*
X128505599Y-154876034D01*
X128590513Y-154596111D01*
X128619185Y-154305000D01*
X128590513Y-154013889D01*
X128505599Y-153733966D01*
X128367706Y-153475986D01*
X128182134Y-153249866D01*
X127956014Y-153064294D01*
X127901209Y-153035000D01*
X127956014Y-153005706D01*
X128182134Y-152820134D01*
X128367706Y-152594014D01*
X128505599Y-152336034D01*
X128590513Y-152056111D01*
X128619185Y-151765000D01*
X128590513Y-151473889D01*
X128505599Y-151193966D01*
X128367706Y-150935986D01*
X128182134Y-150709866D01*
X127956014Y-150524294D01*
X127901209Y-150495000D01*
X127956014Y-150465706D01*
X128182134Y-150280134D01*
X128367706Y-150054014D01*
X128505599Y-149796034D01*
X128590513Y-149516111D01*
X128619185Y-149225000D01*
X128590513Y-148933889D01*
X128505599Y-148653966D01*
X128367706Y-148395986D01*
X128182134Y-148169866D01*
X127956014Y-147984294D01*
X127901209Y-147955000D01*
X127956014Y-147925706D01*
X128182134Y-147740134D01*
X128367706Y-147514014D01*
X128505599Y-147256034D01*
X128590513Y-146976111D01*
X128619185Y-146685000D01*
X128590513Y-146393889D01*
X128505599Y-146113966D01*
X128367706Y-145855986D01*
X128182134Y-145629866D01*
X127956014Y-145444294D01*
X127901209Y-145415000D01*
X127956014Y-145385706D01*
X128182134Y-145200134D01*
X128367706Y-144974014D01*
X128505599Y-144716034D01*
X128590513Y-144436111D01*
X128619185Y-144145000D01*
X128590513Y-143853889D01*
X128505599Y-143573966D01*
X128367706Y-143315986D01*
X128182134Y-143089866D01*
X127956014Y-142904294D01*
X127901209Y-142875000D01*
X127956014Y-142845706D01*
X128182134Y-142660134D01*
X128367706Y-142434014D01*
X128505599Y-142176034D01*
X128590513Y-141896111D01*
X128619185Y-141605000D01*
X128590513Y-141313889D01*
X128505599Y-141033966D01*
X128367706Y-140775986D01*
X128182134Y-140549866D01*
X127956014Y-140364294D01*
X127901209Y-140335000D01*
X127956014Y-140305706D01*
X128182134Y-140120134D01*
X128367706Y-139894014D01*
X128505599Y-139636034D01*
X128590513Y-139356111D01*
X128619185Y-139065000D01*
X128590513Y-138773889D01*
X128505599Y-138493966D01*
X128367706Y-138235986D01*
X128182134Y-138009866D01*
X127956014Y-137824294D01*
X127901209Y-137795000D01*
X127956014Y-137765706D01*
X128182134Y-137580134D01*
X128367706Y-137354014D01*
X128505599Y-137096034D01*
X128590513Y-136816111D01*
X128619185Y-136525000D01*
X128590513Y-136233889D01*
X128505599Y-135953966D01*
X128367706Y-135695986D01*
X128182134Y-135469866D01*
X127956014Y-135284294D01*
X127891477Y-135249799D01*
X128008355Y-135180178D01*
X128224588Y-134985269D01*
X128398641Y-134751920D01*
X128523825Y-134489099D01*
X128568476Y-134341890D01*
X128447155Y-134112000D01*
X127254000Y-134112000D01*
X127254000Y-134132000D01*
X127000000Y-134132000D01*
X127000000Y-134112000D01*
X126980000Y-134112000D01*
X126980000Y-133858000D01*
X127000000Y-133858000D01*
X127000000Y-132664186D01*
X127254000Y-132664186D01*
X127254000Y-133858000D01*
X128447155Y-133858000D01*
X128568476Y-133628110D01*
X128523825Y-133480901D01*
X128398641Y-133218080D01*
X128224588Y-132984731D01*
X128008355Y-132789822D01*
X127758252Y-132640843D01*
X127483891Y-132543519D01*
X127254000Y-132664186D01*
X127000000Y-132664186D01*
X126770109Y-132543519D01*
X126495748Y-132640843D01*
X126245645Y-132789822D01*
X126029412Y-132984731D01*
X125858584Y-133213756D01*
X125827706Y-133155986D01*
X125642134Y-132929866D01*
X125416014Y-132744294D01*
X125158034Y-132606401D01*
X124878111Y-132521487D01*
X124659950Y-132500000D01*
X124514050Y-132500000D01*
X124295889Y-132521487D01*
X124015966Y-132606401D01*
X123757986Y-132744294D01*
X123531866Y-132929866D01*
X123346294Y-133155986D01*
X123208401Y-133413966D01*
X123123487Y-133693889D01*
X123094815Y-133985000D01*
X109786491Y-133985000D01*
X109769937Y-133960226D01*
X109625774Y-133816063D01*
X109456256Y-133702795D01*
X109267898Y-133624774D01*
X109067939Y-133585000D01*
X108864061Y-133585000D01*
X108664102Y-133624774D01*
X108475744Y-133702795D01*
X108306226Y-133816063D01*
X108162063Y-133960226D01*
X108048795Y-134129744D01*
X108013500Y-134214953D01*
X107978205Y-134129744D01*
X107864937Y-133960226D01*
X107720774Y-133816063D01*
X107551256Y-133702795D01*
X107362898Y-133624774D01*
X107162939Y-133585000D01*
X106959061Y-133585000D01*
X106759102Y-133624774D01*
X106570744Y-133702795D01*
X106401226Y-133816063D01*
X106257063Y-133960226D01*
X106143795Y-134129744D01*
X106065774Y-134318102D01*
X106026000Y-134518061D01*
X102381000Y-134518061D01*
X102341226Y-134318102D01*
X102263205Y-134129744D01*
X102149937Y-133960226D01*
X102005774Y-133816063D01*
X101836256Y-133702795D01*
X101647898Y-133624774D01*
X101447939Y-133585000D01*
X101244061Y-133585000D01*
X101044102Y-133624774D01*
X100855744Y-133702795D01*
X100686226Y-133816063D01*
X100542063Y-133960226D01*
X100428795Y-134129744D01*
X100350774Y-134318102D01*
X100330000Y-134422541D01*
X100309226Y-134318102D01*
X100231205Y-134129744D01*
X100117937Y-133960226D01*
X99973774Y-133816063D01*
X99804256Y-133702795D01*
X99615898Y-133624774D01*
X99415939Y-133585000D01*
X99212061Y-133585000D01*
X99012102Y-133624774D01*
X98823744Y-133702795D01*
X98654226Y-133816063D01*
X98510063Y-133960226D01*
X98396795Y-134129744D01*
X98318774Y-134318102D01*
X98279000Y-134518061D01*
X85337118Y-134518061D01*
X85410513Y-134276111D01*
X85439185Y-133985000D01*
X85410513Y-133693889D01*
X85325599Y-133413966D01*
X85187706Y-133155986D01*
X85002134Y-132929866D01*
X84776014Y-132744294D01*
X84518034Y-132606401D01*
X84238111Y-132521487D01*
X84019950Y-132500000D01*
X83874050Y-132500000D01*
X83655889Y-132521487D01*
X83375966Y-132606401D01*
X83117986Y-132744294D01*
X82891866Y-132929866D01*
X82867393Y-132959687D01*
X82846502Y-132890820D01*
X82787537Y-132780506D01*
X82708185Y-132683815D01*
X82611494Y-132604463D01*
X82501180Y-132545498D01*
X82381482Y-132509188D01*
X82257000Y-132496928D01*
X81692750Y-132500000D01*
X81534000Y-132658750D01*
X81534000Y-133858000D01*
X81554000Y-133858000D01*
X81554000Y-134112000D01*
X81534000Y-134112000D01*
X81534000Y-134132000D01*
X81280000Y-134132000D01*
X81280000Y-134112000D01*
X80080750Y-134112000D01*
X79922000Y-134270750D01*
X79918928Y-134835000D01*
X79931188Y-134959482D01*
X79967498Y-135079180D01*
X80026463Y-135189494D01*
X80105815Y-135286185D01*
X80202506Y-135365537D01*
X80312820Y-135424502D01*
X80381687Y-135445393D01*
X80351866Y-135469866D01*
X80166294Y-135695986D01*
X80028401Y-135953966D01*
X79943487Y-136233889D01*
X79914815Y-136525000D01*
X76860000Y-136525000D01*
X76860000Y-133135000D01*
X79918928Y-133135000D01*
X79922000Y-133699250D01*
X80080750Y-133858000D01*
X81280000Y-133858000D01*
X81280000Y-132658750D01*
X81121250Y-132500000D01*
X80557000Y-132496928D01*
X80432518Y-132509188D01*
X80312820Y-132545498D01*
X80202506Y-132604463D01*
X80105815Y-132683815D01*
X80026463Y-132780506D01*
X79967498Y-132890820D01*
X79931188Y-133010518D01*
X79918928Y-133135000D01*
X76860000Y-133135000D01*
X76860000Y-128930061D01*
X79991000Y-128930061D01*
X79991000Y-129133939D01*
X80030774Y-129333898D01*
X80108795Y-129522256D01*
X80222063Y-129691774D01*
X80366226Y-129835937D01*
X80535744Y-129949205D01*
X80724102Y-130027226D01*
X80924061Y-130067000D01*
X81041026Y-130067000D01*
X81046774Y-130095898D01*
X81124795Y-130284256D01*
X81238063Y-130453774D01*
X81382226Y-130597937D01*
X81551744Y-130711205D01*
X81740102Y-130789226D01*
X81940061Y-130829000D01*
X82143939Y-130829000D01*
X82343898Y-130789226D01*
X82532256Y-130711205D01*
X82701774Y-130597937D01*
X82845937Y-130453774D01*
X82959205Y-130284256D01*
X83037226Y-130095898D01*
X83077000Y-129895939D01*
X83077000Y-129692061D01*
X83037226Y-129492102D01*
X82959205Y-129303744D01*
X82845937Y-129134226D01*
X82701774Y-128990063D01*
X82574468Y-128905000D01*
X87534815Y-128905000D01*
X87563487Y-129196111D01*
X87648401Y-129476034D01*
X87786294Y-129734014D01*
X87971866Y-129960134D01*
X88197986Y-130145706D01*
X88455966Y-130283599D01*
X88735889Y-130368513D01*
X88954050Y-130390000D01*
X89099950Y-130390000D01*
X89318111Y-130368513D01*
X89598034Y-130283599D01*
X89856014Y-130145706D01*
X90082134Y-129960134D01*
X90267706Y-129734014D01*
X90297000Y-129679209D01*
X90326294Y-129734014D01*
X90511866Y-129960134D01*
X90737986Y-130145706D01*
X90995966Y-130283599D01*
X91275889Y-130368513D01*
X91494050Y-130390000D01*
X91639950Y-130390000D01*
X91858111Y-130368513D01*
X92138034Y-130283599D01*
X92396014Y-130145706D01*
X92622134Y-129960134D01*
X92807706Y-129734014D01*
X92837000Y-129679209D01*
X92866294Y-129734014D01*
X93051866Y-129960134D01*
X93277986Y-130145706D01*
X93535966Y-130283599D01*
X93815889Y-130368513D01*
X94034050Y-130390000D01*
X94179950Y-130390000D01*
X94398111Y-130368513D01*
X94678034Y-130283599D01*
X94936014Y-130145706D01*
X95162134Y-129960134D01*
X95347706Y-129734014D01*
X95377000Y-129679209D01*
X95406294Y-129734014D01*
X95591866Y-129960134D01*
X95817986Y-130145706D01*
X96075966Y-130283599D01*
X96355889Y-130368513D01*
X96574050Y-130390000D01*
X96719950Y-130390000D01*
X96938111Y-130368513D01*
X97218034Y-130283599D01*
X97476014Y-130145706D01*
X97702134Y-129960134D01*
X97887706Y-129734014D01*
X97917000Y-129679209D01*
X97946294Y-129734014D01*
X98131866Y-129960134D01*
X98357986Y-130145706D01*
X98615966Y-130283599D01*
X98895889Y-130368513D01*
X99114050Y-130390000D01*
X99259950Y-130390000D01*
X99478111Y-130368513D01*
X99758034Y-130283599D01*
X100016014Y-130145706D01*
X100242134Y-129960134D01*
X100427706Y-129734014D01*
X100457000Y-129679209D01*
X100486294Y-129734014D01*
X100671866Y-129960134D01*
X100897986Y-130145706D01*
X101155966Y-130283599D01*
X101435889Y-130368513D01*
X101654050Y-130390000D01*
X101799950Y-130390000D01*
X102018111Y-130368513D01*
X102298034Y-130283599D01*
X102556014Y-130145706D01*
X102782134Y-129960134D01*
X102967706Y-129734014D01*
X102997000Y-129679209D01*
X103026294Y-129734014D01*
X103211866Y-129960134D01*
X103437986Y-130145706D01*
X103695966Y-130283599D01*
X103975889Y-130368513D01*
X104194050Y-130390000D01*
X104339950Y-130390000D01*
X104558111Y-130368513D01*
X104838034Y-130283599D01*
X105096014Y-130145706D01*
X105322134Y-129960134D01*
X105507706Y-129734014D01*
X105537000Y-129679209D01*
X105566294Y-129734014D01*
X105751866Y-129960134D01*
X105977986Y-130145706D01*
X106235966Y-130283599D01*
X106515889Y-130368513D01*
X106734050Y-130390000D01*
X106879950Y-130390000D01*
X107098111Y-130368513D01*
X107378034Y-130283599D01*
X107636014Y-130145706D01*
X107862134Y-129960134D01*
X108047706Y-129734014D01*
X108077000Y-129679209D01*
X108106294Y-129734014D01*
X108291866Y-129960134D01*
X108517986Y-130145706D01*
X108775966Y-130283599D01*
X109055889Y-130368513D01*
X109274050Y-130390000D01*
X109419950Y-130390000D01*
X109638111Y-130368513D01*
X109918034Y-130283599D01*
X110176014Y-130145706D01*
X110402134Y-129960134D01*
X110587706Y-129734014D01*
X110617000Y-129679209D01*
X110646294Y-129734014D01*
X110831866Y-129960134D01*
X111057986Y-130145706D01*
X111315966Y-130283599D01*
X111595889Y-130368513D01*
X111814050Y-130390000D01*
X111959950Y-130390000D01*
X112178111Y-130368513D01*
X112458034Y-130283599D01*
X112716014Y-130145706D01*
X112942134Y-129960134D01*
X113127706Y-129734014D01*
X113157000Y-129679209D01*
X113186294Y-129734014D01*
X113371866Y-129960134D01*
X113597986Y-130145706D01*
X113855966Y-130283599D01*
X114135889Y-130368513D01*
X114354050Y-130390000D01*
X114499950Y-130390000D01*
X114718111Y-130368513D01*
X114998034Y-130283599D01*
X115256014Y-130145706D01*
X115482134Y-129960134D01*
X115667706Y-129734014D01*
X115697000Y-129679209D01*
X115726294Y-129734014D01*
X115911866Y-129960134D01*
X116137986Y-130145706D01*
X116395966Y-130283599D01*
X116675889Y-130368513D01*
X116894050Y-130390000D01*
X117039950Y-130390000D01*
X117258111Y-130368513D01*
X117538034Y-130283599D01*
X117796014Y-130145706D01*
X118022134Y-129960134D01*
X118207706Y-129734014D01*
X118237000Y-129679209D01*
X118266294Y-129734014D01*
X118451866Y-129960134D01*
X118677986Y-130145706D01*
X118935966Y-130283599D01*
X119215889Y-130368513D01*
X119434050Y-130390000D01*
X119579950Y-130390000D01*
X119798111Y-130368513D01*
X120078034Y-130283599D01*
X120336014Y-130145706D01*
X120562134Y-129960134D01*
X120747706Y-129734014D01*
X120885599Y-129476034D01*
X120970513Y-129196111D01*
X120996716Y-128930061D01*
X125584000Y-128930061D01*
X125584000Y-129133939D01*
X125623774Y-129333898D01*
X125701795Y-129522256D01*
X125815063Y-129691774D01*
X125959226Y-129835937D01*
X126128744Y-129949205D01*
X126317102Y-130027226D01*
X126517061Y-130067000D01*
X126634026Y-130067000D01*
X126639774Y-130095898D01*
X126717795Y-130284256D01*
X126831063Y-130453774D01*
X126975226Y-130597937D01*
X127144744Y-130711205D01*
X127333102Y-130789226D01*
X127533061Y-130829000D01*
X127736939Y-130829000D01*
X127936898Y-130789226D01*
X128125256Y-130711205D01*
X128294774Y-130597937D01*
X128438937Y-130453774D01*
X128552205Y-130284256D01*
X128630226Y-130095898D01*
X128670000Y-129895939D01*
X128670000Y-129692061D01*
X128630226Y-129492102D01*
X128552205Y-129303744D01*
X128438937Y-129134226D01*
X128294774Y-128990063D01*
X128125256Y-128876795D01*
X127936898Y-128798774D01*
X127736939Y-128759000D01*
X127619974Y-128759000D01*
X127614226Y-128730102D01*
X127536205Y-128541744D01*
X127422937Y-128372226D01*
X127278774Y-128228063D01*
X127109256Y-128114795D01*
X126920898Y-128036774D01*
X126720939Y-127997000D01*
X126517061Y-127997000D01*
X126317102Y-128036774D01*
X126128744Y-128114795D01*
X125959226Y-128228063D01*
X125815063Y-128372226D01*
X125701795Y-128541744D01*
X125623774Y-128730102D01*
X125584000Y-128930061D01*
X120996716Y-128930061D01*
X120999185Y-128905000D01*
X120970513Y-128613889D01*
X120885599Y-128333966D01*
X120747706Y-128075986D01*
X120562134Y-127849866D01*
X120532313Y-127825393D01*
X120601180Y-127804502D01*
X120711494Y-127745537D01*
X120808185Y-127666185D01*
X120887537Y-127569494D01*
X120946502Y-127459180D01*
X120982812Y-127339482D01*
X120995072Y-127215000D01*
X120992000Y-126650750D01*
X120833250Y-126492000D01*
X119634000Y-126492000D01*
X119634000Y-126512000D01*
X119380000Y-126512000D01*
X119380000Y-126492000D01*
X119360000Y-126492000D01*
X119360000Y-126238000D01*
X119380000Y-126238000D01*
X119380000Y-125038750D01*
X119634000Y-125038750D01*
X119634000Y-126238000D01*
X120833250Y-126238000D01*
X120992000Y-126079250D01*
X120995072Y-125515000D01*
X120982812Y-125390518D01*
X120946502Y-125270820D01*
X120887537Y-125160506D01*
X120808185Y-125063815D01*
X120711494Y-124984463D01*
X120601180Y-124925498D01*
X120481482Y-124889188D01*
X120357000Y-124876928D01*
X119792750Y-124880000D01*
X119634000Y-125038750D01*
X119380000Y-125038750D01*
X119221250Y-124880000D01*
X118657000Y-124876928D01*
X118532518Y-124889188D01*
X118412820Y-124925498D01*
X118302506Y-124984463D01*
X118205815Y-125063815D01*
X118126463Y-125160506D01*
X118067498Y-125270820D01*
X118046607Y-125339687D01*
X118022134Y-125309866D01*
X117796014Y-125124294D01*
X117538034Y-124986401D01*
X117258111Y-124901487D01*
X117039950Y-124880000D01*
X116894050Y-124880000D01*
X116675889Y-124901487D01*
X116395966Y-124986401D01*
X116137986Y-125124294D01*
X115911866Y-125309866D01*
X115726294Y-125535986D01*
X115697000Y-125590791D01*
X115667706Y-125535986D01*
X115482134Y-125309866D01*
X115256014Y-125124294D01*
X114998034Y-124986401D01*
X114718111Y-124901487D01*
X114499950Y-124880000D01*
X114354050Y-124880000D01*
X114135889Y-124901487D01*
X113855966Y-124986401D01*
X113597986Y-125124294D01*
X113371866Y-125309866D01*
X113186294Y-125535986D01*
X113157000Y-125590791D01*
X113127706Y-125535986D01*
X112942134Y-125309866D01*
X112716014Y-125124294D01*
X112458034Y-124986401D01*
X112178111Y-124901487D01*
X111959950Y-124880000D01*
X111814050Y-124880000D01*
X111595889Y-124901487D01*
X111315966Y-124986401D01*
X111057986Y-125124294D01*
X110831866Y-125309866D01*
X110646294Y-125535986D01*
X110617000Y-125590791D01*
X110587706Y-125535986D01*
X110402134Y-125309866D01*
X110176014Y-125124294D01*
X109918034Y-124986401D01*
X109638111Y-124901487D01*
X109419950Y-124880000D01*
X109274050Y-124880000D01*
X109055889Y-124901487D01*
X108775966Y-124986401D01*
X108517986Y-125124294D01*
X108291866Y-125309866D01*
X108106294Y-125535986D01*
X108077000Y-125590791D01*
X108047706Y-125535986D01*
X107862134Y-125309866D01*
X107636014Y-125124294D01*
X107378034Y-124986401D01*
X107098111Y-124901487D01*
X106879950Y-124880000D01*
X106734050Y-124880000D01*
X106515889Y-124901487D01*
X106235966Y-124986401D01*
X105977986Y-125124294D01*
X105751866Y-125309866D01*
X105566294Y-125535986D01*
X105537000Y-125590791D01*
X105507706Y-125535986D01*
X105322134Y-125309866D01*
X105096014Y-125124294D01*
X104838034Y-124986401D01*
X104558111Y-124901487D01*
X104339950Y-124880000D01*
X104194050Y-124880000D01*
X103975889Y-124901487D01*
X103695966Y-124986401D01*
X103437986Y-125124294D01*
X103211866Y-125309866D01*
X103026294Y-125535986D01*
X102997000Y-125590791D01*
X102967706Y-125535986D01*
X102782134Y-125309866D01*
X102556014Y-125124294D01*
X102298034Y-124986401D01*
X102018111Y-124901487D01*
X101799950Y-124880000D01*
X101654050Y-124880000D01*
X101435889Y-124901487D01*
X101155966Y-124986401D01*
X100897986Y-125124294D01*
X100671866Y-125309866D01*
X100486294Y-125535986D01*
X100457000Y-125590791D01*
X100427706Y-125535986D01*
X100242134Y-125309866D01*
X100016014Y-125124294D01*
X99758034Y-124986401D01*
X99478111Y-124901487D01*
X99259950Y-124880000D01*
X99114050Y-124880000D01*
X98895889Y-124901487D01*
X98615966Y-124986401D01*
X98357986Y-125124294D01*
X98131866Y-125309866D01*
X97946294Y-125535986D01*
X97917000Y-125590791D01*
X97887706Y-125535986D01*
X97702134Y-125309866D01*
X97476014Y-125124294D01*
X97218034Y-124986401D01*
X96938111Y-124901487D01*
X96719950Y-124880000D01*
X96574050Y-124880000D01*
X96355889Y-124901487D01*
X96075966Y-124986401D01*
X95817986Y-125124294D01*
X95591866Y-125309866D01*
X95406294Y-125535986D01*
X95377000Y-125590791D01*
X95347706Y-125535986D01*
X95162134Y-125309866D01*
X94936014Y-125124294D01*
X94678034Y-124986401D01*
X94398111Y-124901487D01*
X94179950Y-124880000D01*
X94034050Y-124880000D01*
X93815889Y-124901487D01*
X93535966Y-124986401D01*
X93277986Y-125124294D01*
X93051866Y-125309866D01*
X92866294Y-125535986D01*
X92837000Y-125590791D01*
X92807706Y-125535986D01*
X92622134Y-125309866D01*
X92396014Y-125124294D01*
X92138034Y-124986401D01*
X91858111Y-124901487D01*
X91639950Y-124880000D01*
X91494050Y-124880000D01*
X91275889Y-124901487D01*
X90995966Y-124986401D01*
X90737986Y-125124294D01*
X90511866Y-125309866D01*
X90326294Y-125535986D01*
X90291799Y-125600523D01*
X90222178Y-125483645D01*
X90027269Y-125267412D01*
X89793920Y-125093359D01*
X89531099Y-124968175D01*
X89383890Y-124923524D01*
X89154000Y-125044845D01*
X89154000Y-126238000D01*
X89174000Y-126238000D01*
X89174000Y-126492000D01*
X89154000Y-126492000D01*
X89154000Y-126512000D01*
X88900000Y-126512000D01*
X88900000Y-126492000D01*
X87706186Y-126492000D01*
X87585519Y-126721891D01*
X87682843Y-126996252D01*
X87831822Y-127246355D01*
X88026731Y-127462588D01*
X88255756Y-127633416D01*
X88197986Y-127664294D01*
X87971866Y-127849866D01*
X87786294Y-128075986D01*
X87648401Y-128333966D01*
X87563487Y-128613889D01*
X87534815Y-128905000D01*
X82574468Y-128905000D01*
X82532256Y-128876795D01*
X82343898Y-128798774D01*
X82143939Y-128759000D01*
X82026974Y-128759000D01*
X82021226Y-128730102D01*
X81943205Y-128541744D01*
X81829937Y-128372226D01*
X81685774Y-128228063D01*
X81516256Y-128114795D01*
X81327898Y-128036774D01*
X81127939Y-127997000D01*
X80924061Y-127997000D01*
X80724102Y-128036774D01*
X80535744Y-128114795D01*
X80366226Y-128228063D01*
X80222063Y-128372226D01*
X80108795Y-128541744D01*
X80030774Y-128730102D01*
X79991000Y-128930061D01*
X76860000Y-128930061D01*
X76860000Y-126008109D01*
X87585519Y-126008109D01*
X87706186Y-126238000D01*
X88900000Y-126238000D01*
X88900000Y-125044845D01*
X88670110Y-124923524D01*
X88522901Y-124968175D01*
X88260080Y-125093359D01*
X88026731Y-125267412D01*
X87831822Y-125483645D01*
X87682843Y-125733748D01*
X87585519Y-126008109D01*
X76860000Y-126008109D01*
X76860000Y-119285279D01*
X76898909Y-118888455D01*
X77004780Y-118537792D01*
X77176744Y-118214375D01*
X77408254Y-117930516D01*
X77690486Y-117697035D01*
X78012695Y-117522817D01*
X78362614Y-117414498D01*
X78757443Y-117373000D01*
X98773721Y-117373000D01*
X98923869Y-117387722D01*
X98923869Y-117387722D01*
G37*
X98923869Y-117387722D02*
X99037246Y-117421953D01*
X99141819Y-117477555D01*
X99233596Y-117552407D01*
X99309091Y-117643664D01*
X99365419Y-117747844D01*
X99400440Y-117860976D01*
X99416000Y-118009022D01*
X99416001Y-120174419D01*
X99418802Y-120202855D01*
X99418747Y-120210682D01*
X99419646Y-120219853D01*
X99445554Y-120466357D01*
X99457589Y-120524986D01*
X99468792Y-120583716D01*
X99471456Y-120592538D01*
X99544751Y-120829314D01*
X99567931Y-120884457D01*
X99590339Y-120939920D01*
X99594665Y-120948054D01*
X99594667Y-120948059D01*
X99594670Y-120948064D01*
X99712553Y-121166086D01*
X99745988Y-121215654D01*
X99778759Y-121265735D01*
X99784584Y-121272876D01*
X99942577Y-121463856D01*
X99985012Y-121505995D01*
X100026875Y-121548745D01*
X100033976Y-121554618D01*
X100226053Y-121711273D01*
X100275875Y-121744374D01*
X100325237Y-121778173D01*
X100333343Y-121782556D01*
X100552191Y-121898919D01*
X100607479Y-121921707D01*
X100662475Y-121945279D01*
X100671278Y-121948003D01*
X100908559Y-122019643D01*
X100967246Y-122031264D01*
X101025752Y-122043700D01*
X101034915Y-122044663D01*
X101034917Y-122044663D01*
X101281595Y-122068850D01*
X101281598Y-122068850D01*
X101313581Y-122072000D01*
X129507721Y-122072000D01*
X129904545Y-122110909D01*
X130255208Y-122216780D01*
X130578625Y-122388744D01*
X130862484Y-122620254D01*
X131095965Y-122902486D01*
X131270183Y-123224695D01*
X131378502Y-123574614D01*
X131420001Y-123969452D01*
X131420000Y-175227721D01*
X131381091Y-175624545D01*
X131275220Y-175975206D01*
X131103257Y-176298623D01*
X130871748Y-176582482D01*
X130589514Y-176815965D01*
X130267304Y-176990184D01*
X129917385Y-177098502D01*
X129522557Y-177140000D01*
X78772279Y-177140000D01*
X78375455Y-177101091D01*
X78024794Y-176995220D01*
X77701377Y-176823257D01*
X77417518Y-176591748D01*
X77184035Y-176309514D01*
X77009816Y-175987304D01*
X76901498Y-175637385D01*
X76860000Y-175242557D01*
X76860000Y-172935000D01*
X87538928Y-172935000D01*
X87551188Y-173059482D01*
X87587498Y-173179180D01*
X87646463Y-173289494D01*
X87725815Y-173386185D01*
X87822506Y-173465537D01*
X87932820Y-173524502D01*
X88052518Y-173560812D01*
X88177000Y-173573072D01*
X88741250Y-173570000D01*
X88900000Y-173411250D01*
X88900000Y-172212000D01*
X87700750Y-172212000D01*
X87542000Y-172370750D01*
X87538928Y-172935000D01*
X76860000Y-172935000D01*
X76860000Y-169443061D01*
X79864000Y-169443061D01*
X79864000Y-169646939D01*
X79903774Y-169846898D01*
X79981795Y-170035256D01*
X80095063Y-170204774D01*
X80239226Y-170348937D01*
X80408744Y-170462205D01*
X80597102Y-170540226D01*
X80797061Y-170580000D01*
X81000939Y-170580000D01*
X81200898Y-170540226D01*
X81389256Y-170462205D01*
X81558774Y-170348937D01*
X81702937Y-170204774D01*
X81816205Y-170035256D01*
X81894226Y-169846898D01*
X81899974Y-169818000D01*
X82016939Y-169818000D01*
X82216898Y-169778226D01*
X82405256Y-169700205D01*
X82574774Y-169586937D01*
X82616711Y-169545000D01*
X87534815Y-169545000D01*
X87563487Y-169836111D01*
X87648401Y-170116034D01*
X87786294Y-170374014D01*
X87971866Y-170600134D01*
X88001687Y-170624607D01*
X87932820Y-170645498D01*
X87822506Y-170704463D01*
X87725815Y-170783815D01*
X87646463Y-170880506D01*
X87587498Y-170990820D01*
X87551188Y-171110518D01*
X87538928Y-171235000D01*
X87542000Y-171799250D01*
X87700750Y-171958000D01*
X88900000Y-171958000D01*
X88900000Y-171938000D01*
X89154000Y-171938000D01*
X89154000Y-171958000D01*
X89174000Y-171958000D01*
X89174000Y-172212000D01*
X89154000Y-172212000D01*
X89154000Y-173411250D01*
X89312750Y-173570000D01*
X89877000Y-173573072D01*
X90001482Y-173560812D01*
X90121180Y-173524502D01*
X90231494Y-173465537D01*
X90328185Y-173386185D01*
X90407537Y-173289494D01*
X90466502Y-173179180D01*
X90487393Y-173110313D01*
X90511866Y-173140134D01*
X90737986Y-173325706D01*
X90995966Y-173463599D01*
X91275889Y-173548513D01*
X91494050Y-173570000D01*
X91639950Y-173570000D01*
X91858111Y-173548513D01*
X92138034Y-173463599D01*
X92396014Y-173325706D01*
X92622134Y-173140134D01*
X92807706Y-172914014D01*
X92837000Y-172859209D01*
X92866294Y-172914014D01*
X93051866Y-173140134D01*
X93277986Y-173325706D01*
X93535966Y-173463599D01*
X93815889Y-173548513D01*
X94034050Y-173570000D01*
X94179950Y-173570000D01*
X94398111Y-173548513D01*
X94678034Y-173463599D01*
X94936014Y-173325706D01*
X95162134Y-173140134D01*
X95347706Y-172914014D01*
X95377000Y-172859209D01*
X95406294Y-172914014D01*
X95591866Y-173140134D01*
X95817986Y-173325706D01*
X96075966Y-173463599D01*
X96355889Y-173548513D01*
X96574050Y-173570000D01*
X96719950Y-173570000D01*
X96938111Y-173548513D01*
X97218034Y-173463599D01*
X97476014Y-173325706D01*
X97702134Y-173140134D01*
X97887706Y-172914014D01*
X97917000Y-172859209D01*
X97946294Y-172914014D01*
X98131866Y-173140134D01*
X98357986Y-173325706D01*
X98615966Y-173463599D01*
X98895889Y-173548513D01*
X99114050Y-173570000D01*
X99259950Y-173570000D01*
X99478111Y-173548513D01*
X99758034Y-173463599D01*
X100016014Y-173325706D01*
X100242134Y-173140134D01*
X100427706Y-172914014D01*
X100457000Y-172859209D01*
X100486294Y-172914014D01*
X100671866Y-173140134D01*
X100897986Y-173325706D01*
X101155966Y-173463599D01*
X101435889Y-173548513D01*
X101654050Y-173570000D01*
X101799950Y-173570000D01*
X102018111Y-173548513D01*
X102298034Y-173463599D01*
X102556014Y-173325706D01*
X102782134Y-173140134D01*
X102967706Y-172914014D01*
X102997000Y-172859209D01*
X103026294Y-172914014D01*
X103211866Y-173140134D01*
X103437986Y-173325706D01*
X103695966Y-173463599D01*
X103975889Y-173548513D01*
X104194050Y-173570000D01*
X104339950Y-173570000D01*
X104558111Y-173548513D01*
X104838034Y-173463599D01*
X105096014Y-173325706D01*
X105322134Y-173140134D01*
X105507706Y-172914014D01*
X105537000Y-172859209D01*
X105566294Y-172914014D01*
X105751866Y-173140134D01*
X105977986Y-173325706D01*
X106235966Y-173463599D01*
X106515889Y-173548513D01*
X106734050Y-173570000D01*
X106879950Y-173570000D01*
X107098111Y-173548513D01*
X107378034Y-173463599D01*
X107636014Y-173325706D01*
X107862134Y-173140134D01*
X108047706Y-172914014D01*
X108077000Y-172859209D01*
X108106294Y-172914014D01*
X108291866Y-173140134D01*
X108517986Y-173325706D01*
X108775966Y-173463599D01*
X109055889Y-173548513D01*
X109274050Y-173570000D01*
X109419950Y-173570000D01*
X109638111Y-173548513D01*
X109918034Y-173463599D01*
X110176014Y-173325706D01*
X110402134Y-173140134D01*
X110587706Y-172914014D01*
X110617000Y-172859209D01*
X110646294Y-172914014D01*
X110831866Y-173140134D01*
X111057986Y-173325706D01*
X111315966Y-173463599D01*
X111595889Y-173548513D01*
X111814050Y-173570000D01*
X111959950Y-173570000D01*
X112178111Y-173548513D01*
X112458034Y-173463599D01*
X112716014Y-173325706D01*
X112942134Y-173140134D01*
X113127706Y-172914014D01*
X113157000Y-172859209D01*
X113186294Y-172914014D01*
X113371866Y-173140134D01*
X113597986Y-173325706D01*
X113855966Y-173463599D01*
X114135889Y-173548513D01*
X114354050Y-173570000D01*
X114499950Y-173570000D01*
X114718111Y-173548513D01*
X114998034Y-173463599D01*
X115256014Y-173325706D01*
X115482134Y-173140134D01*
X115667706Y-172914014D01*
X115697000Y-172859209D01*
X115726294Y-172914014D01*
X115911866Y-173140134D01*
X116137986Y-173325706D01*
X116395966Y-173463599D01*
X116675889Y-173548513D01*
X116894050Y-173570000D01*
X117039950Y-173570000D01*
X117258111Y-173548513D01*
X117538034Y-173463599D01*
X117796014Y-173325706D01*
X118022134Y-173140134D01*
X118207706Y-172914014D01*
X118242201Y-172849477D01*
X118311822Y-172966355D01*
X118506731Y-173182588D01*
X118740080Y-173356641D01*
X119002901Y-173481825D01*
X119150110Y-173526476D01*
X119380000Y-173405155D01*
X119380000Y-172212000D01*
X119634000Y-172212000D01*
X119634000Y-173405155D01*
X119863890Y-173526476D01*
X120011099Y-173481825D01*
X120273920Y-173356641D01*
X120507269Y-173182588D01*
X120702178Y-172966355D01*
X120851157Y-172716252D01*
X120948481Y-172441891D01*
X120827814Y-172212000D01*
X119634000Y-172212000D01*
X119380000Y-172212000D01*
X119360000Y-172212000D01*
X119360000Y-171958000D01*
X119380000Y-171958000D01*
X119380000Y-171938000D01*
X119634000Y-171938000D01*
X119634000Y-171958000D01*
X120827814Y-171958000D01*
X120948481Y-171728109D01*
X120851157Y-171453748D01*
X120702178Y-171203645D01*
X120507269Y-170987412D01*
X120278244Y-170816584D01*
X120336014Y-170785706D01*
X120562134Y-170600134D01*
X120747706Y-170374014D01*
X120885599Y-170116034D01*
X120970513Y-169836111D01*
X120999185Y-169545000D01*
X120970513Y-169253889D01*
X120885599Y-168973966D01*
X120747706Y-168715986D01*
X120719044Y-168681061D01*
X125584000Y-168681061D01*
X125584000Y-168884939D01*
X125623774Y-169084898D01*
X125701795Y-169273256D01*
X125815063Y-169442774D01*
X125959226Y-169586937D01*
X126128744Y-169700205D01*
X126317102Y-169778226D01*
X126517061Y-169818000D01*
X126680409Y-169818000D01*
X126717795Y-169908256D01*
X126831063Y-170077774D01*
X126975226Y-170221937D01*
X127144744Y-170335205D01*
X127333102Y-170413226D01*
X127533061Y-170453000D01*
X127736939Y-170453000D01*
X127936898Y-170413226D01*
X128125256Y-170335205D01*
X128294774Y-170221937D01*
X128438937Y-170077774D01*
X128552205Y-169908256D01*
X128630226Y-169719898D01*
X128670000Y-169519939D01*
X128670000Y-169316061D01*
X128630226Y-169116102D01*
X128552205Y-168927744D01*
X128438937Y-168758226D01*
X128294774Y-168614063D01*
X128125256Y-168500795D01*
X127936898Y-168422774D01*
X127736939Y-168383000D01*
X127573591Y-168383000D01*
X127536205Y-168292744D01*
X127422937Y-168123226D01*
X127278774Y-167979063D01*
X127109256Y-167865795D01*
X126920898Y-167787774D01*
X126720939Y-167748000D01*
X126517061Y-167748000D01*
X126317102Y-167787774D01*
X126128744Y-167865795D01*
X125959226Y-167979063D01*
X125815063Y-168123226D01*
X125701795Y-168292744D01*
X125623774Y-168481102D01*
X125584000Y-168681061D01*
X120719044Y-168681061D01*
X120562134Y-168489866D01*
X120336014Y-168304294D01*
X120078034Y-168166401D01*
X119798111Y-168081487D01*
X119579950Y-168060000D01*
X119434050Y-168060000D01*
X119215889Y-168081487D01*
X118935966Y-168166401D01*
X118677986Y-168304294D01*
X118451866Y-168489866D01*
X118266294Y-168715986D01*
X118237000Y-168770791D01*
X118207706Y-168715986D01*
X118022134Y-168489866D01*
X117796014Y-168304294D01*
X117538034Y-168166401D01*
X117258111Y-168081487D01*
X117039950Y-168060000D01*
X116894050Y-168060000D01*
X116675889Y-168081487D01*
X116395966Y-168166401D01*
X116137986Y-168304294D01*
X115911866Y-168489866D01*
X115726294Y-168715986D01*
X115697000Y-168770791D01*
X115667706Y-168715986D01*
X115482134Y-168489866D01*
X115256014Y-168304294D01*
X114998034Y-168166401D01*
X114718111Y-168081487D01*
X114499950Y-168060000D01*
X114354050Y-168060000D01*
X114135889Y-168081487D01*
X113855966Y-168166401D01*
X113597986Y-168304294D01*
X113371866Y-168489866D01*
X113186294Y-168715986D01*
X113157000Y-168770791D01*
X113127706Y-168715986D01*
X112942134Y-168489866D01*
X112716014Y-168304294D01*
X112458034Y-168166401D01*
X112178111Y-168081487D01*
X111959950Y-168060000D01*
X111814050Y-168060000D01*
X111595889Y-168081487D01*
X111315966Y-168166401D01*
X111057986Y-168304294D01*
X110831866Y-168489866D01*
X110646294Y-168715986D01*
X110617000Y-168770791D01*
X110587706Y-168715986D01*
X110402134Y-168489866D01*
X110176014Y-168304294D01*
X109918034Y-168166401D01*
X109638111Y-168081487D01*
X109419950Y-168060000D01*
X109274050Y-168060000D01*
X109055889Y-168081487D01*
X108775966Y-168166401D01*
X108517986Y-168304294D01*
X108291866Y-168489866D01*
X108106294Y-168715986D01*
X108077000Y-168770791D01*
X108047706Y-168715986D01*
X107862134Y-168489866D01*
X107636014Y-168304294D01*
X107378034Y-168166401D01*
X107098111Y-168081487D01*
X106879950Y-168060000D01*
X106734050Y-168060000D01*
X106515889Y-168081487D01*
X106235966Y-168166401D01*
X105977986Y-168304294D01*
X105751866Y-168489866D01*
X105566294Y-168715986D01*
X105537000Y-168770791D01*
X105507706Y-168715986D01*
X105322134Y-168489866D01*
X105096014Y-168304294D01*
X104838034Y-168166401D01*
X104558111Y-168081487D01*
X104339950Y-168060000D01*
X104194050Y-168060000D01*
X103975889Y-168081487D01*
X103695966Y-168166401D01*
X103437986Y-168304294D01*
X103211866Y-168489866D01*
X103026294Y-168715986D01*
X102997000Y-168770791D01*
X102967706Y-168715986D01*
X102782134Y-168489866D01*
X102556014Y-168304294D01*
X102298034Y-168166401D01*
X102018111Y-168081487D01*
X101799950Y-168060000D01*
X101654050Y-168060000D01*
X101435889Y-168081487D01*
X101155966Y-168166401D01*
X100897986Y-168304294D01*
X100671866Y-168489866D01*
X100486294Y-168715986D01*
X100457000Y-168770791D01*
X100427706Y-168715986D01*
X100242134Y-168489866D01*
X100016014Y-168304294D01*
X99758034Y-168166401D01*
X99478111Y-168081487D01*
X99259950Y-168060000D01*
X99114050Y-168060000D01*
X98895889Y-168081487D01*
X98615966Y-168166401D01*
X98357986Y-168304294D01*
X98131866Y-168489866D01*
X97946294Y-168715986D01*
X97917000Y-168770791D01*
X97887706Y-168715986D01*
X97702134Y-168489866D01*
X97476014Y-168304294D01*
X97218034Y-168166401D01*
X96938111Y-168081487D01*
X96719950Y-168060000D01*
X96574050Y-168060000D01*
X96355889Y-168081487D01*
X96075966Y-168166401D01*
X95817986Y-168304294D01*
X95591866Y-168489866D01*
X95406294Y-168715986D01*
X95377000Y-168770791D01*
X95347706Y-168715986D01*
X95162134Y-168489866D01*
X94936014Y-168304294D01*
X94678034Y-168166401D01*
X94398111Y-168081487D01*
X94179950Y-168060000D01*
X94034050Y-168060000D01*
X93815889Y-168081487D01*
X93535966Y-168166401D01*
X93277986Y-168304294D01*
X93051866Y-168489866D01*
X92866294Y-168715986D01*
X92837000Y-168770791D01*
X92807706Y-168715986D01*
X92622134Y-168489866D01*
X92396014Y-168304294D01*
X92138034Y-168166401D01*
X91858111Y-168081487D01*
X91639950Y-168060000D01*
X91494050Y-168060000D01*
X91275889Y-168081487D01*
X90995966Y-168166401D01*
X90737986Y-168304294D01*
X90511866Y-168489866D01*
X90326294Y-168715986D01*
X90297000Y-168770791D01*
X90267706Y-168715986D01*
X90082134Y-168489866D01*
X89856014Y-168304294D01*
X89598034Y-168166401D01*
X89318111Y-168081487D01*
X89099950Y-168060000D01*
X88954050Y-168060000D01*
X88735889Y-168081487D01*
X88455966Y-168166401D01*
X88197986Y-168304294D01*
X87971866Y-168489866D01*
X87786294Y-168715986D01*
X87648401Y-168973966D01*
X87563487Y-169253889D01*
X87534815Y-169545000D01*
X82616711Y-169545000D01*
X82718937Y-169442774D01*
X82832205Y-169273256D01*
X82910226Y-169084898D01*
X82950000Y-168884939D01*
X82950000Y-168681061D01*
X82910226Y-168481102D01*
X82832205Y-168292744D01*
X82718937Y-168123226D01*
X82574774Y-167979063D01*
X82405256Y-167865795D01*
X82216898Y-167787774D01*
X82016939Y-167748000D01*
X81813061Y-167748000D01*
X81613102Y-167787774D01*
X81424744Y-167865795D01*
X81255226Y-167979063D01*
X81111063Y-168123226D01*
X80997795Y-168292744D01*
X80919774Y-168481102D01*
X80914026Y-168510000D01*
X80797061Y-168510000D01*
X80597102Y-168549774D01*
X80408744Y-168627795D01*
X80239226Y-168741063D01*
X80095063Y-168885226D01*
X79981795Y-169054744D01*
X79903774Y-169243102D01*
X79864000Y-169443061D01*
X76860000Y-169443061D01*
X76860000Y-164821890D01*
X79965524Y-164821890D01*
X80010175Y-164969099D01*
X80135359Y-165231920D01*
X80309412Y-165465269D01*
X80525645Y-165660178D01*
X80775748Y-165809157D01*
X81050109Y-165906481D01*
X81280000Y-165785814D01*
X81280000Y-164592000D01*
X80086845Y-164592000D01*
X79965524Y-164821890D01*
X76860000Y-164821890D01*
X76860000Y-136525000D01*
X79914815Y-136525000D01*
X79943487Y-136816111D01*
X80028401Y-137096034D01*
X80166294Y-137354014D01*
X80351866Y-137580134D01*
X80577986Y-137765706D01*
X80632791Y-137795000D01*
X80577986Y-137824294D01*
X80351866Y-138009866D01*
X80166294Y-138235986D01*
X80028401Y-138493966D01*
X79943487Y-138773889D01*
X79914815Y-139065000D01*
X79943487Y-139356111D01*
X80028401Y-139636034D01*
X80166294Y-139894014D01*
X80351866Y-140120134D01*
X80577986Y-140305706D01*
X80632791Y-140335000D01*
X80577986Y-140364294D01*
X80351866Y-140549866D01*
X80166294Y-140775986D01*
X80028401Y-141033966D01*
X79943487Y-141313889D01*
X79914815Y-141605000D01*
X79943487Y-141896111D01*
X80028401Y-142176034D01*
X80166294Y-142434014D01*
X80351866Y-142660134D01*
X80577986Y-142845706D01*
X80632791Y-142875000D01*
X80577986Y-142904294D01*
X80351866Y-143089866D01*
X80166294Y-143315986D01*
X80028401Y-143573966D01*
X79943487Y-143853889D01*
X79914815Y-144145000D01*
X79943487Y-144436111D01*
X80028401Y-144716034D01*
X80166294Y-144974014D01*
X80351866Y-145200134D01*
X80577986Y-145385706D01*
X80632791Y-145415000D01*
X80577986Y-145444294D01*
X80351866Y-145629866D01*
X80166294Y-145855986D01*
X80028401Y-146113966D01*
X79943487Y-146393889D01*
X79914815Y-146685000D01*
X79943487Y-146976111D01*
X80028401Y-147256034D01*
X80166294Y-147514014D01*
X80351866Y-147740134D01*
X80577986Y-147925706D01*
X80632791Y-147955000D01*
X80577986Y-147984294D01*
X80351866Y-148169866D01*
X80166294Y-148395986D01*
X80028401Y-148653966D01*
X79943487Y-148933889D01*
X79914815Y-149225000D01*
X79943487Y-149516111D01*
X80028401Y-149796034D01*
X80166294Y-150054014D01*
X80351866Y-150280134D01*
X80577986Y-150465706D01*
X80632791Y-150495000D01*
X80577986Y-150524294D01*
X80351866Y-150709866D01*
X80166294Y-150935986D01*
X80028401Y-151193966D01*
X79943487Y-151473889D01*
X79914815Y-151765000D01*
X79943487Y-152056111D01*
X80028401Y-152336034D01*
X80166294Y-152594014D01*
X80351866Y-152820134D01*
X80577986Y-153005706D01*
X80632791Y-153035000D01*
X80577986Y-153064294D01*
X80351866Y-153249866D01*
X80166294Y-153475986D01*
X80028401Y-153733966D01*
X79943487Y-154013889D01*
X79914815Y-154305000D01*
X79943487Y-154596111D01*
X80028401Y-154876034D01*
X80166294Y-155134014D01*
X80351866Y-155360134D01*
X80577986Y-155545706D01*
X80632791Y-155575000D01*
X80577986Y-155604294D01*
X80351866Y-155789866D01*
X80166294Y-156015986D01*
X80028401Y-156273966D01*
X79943487Y-156553889D01*
X79914815Y-156845000D01*
X79943487Y-157136111D01*
X80028401Y-157416034D01*
X80166294Y-157674014D01*
X80351866Y-157900134D01*
X80577986Y-158085706D01*
X80632791Y-158115000D01*
X80577986Y-158144294D01*
X80351866Y-158329866D01*
X80166294Y-158555986D01*
X80028401Y-158813966D01*
X79943487Y-159093889D01*
X79914815Y-159385000D01*
X79943487Y-159676111D01*
X80028401Y-159956034D01*
X80166294Y-160214014D01*
X80351866Y-160440134D01*
X80577986Y-160625706D01*
X80632791Y-160655000D01*
X80577986Y-160684294D01*
X80351866Y-160869866D01*
X80166294Y-161095986D01*
X80028401Y-161353966D01*
X79943487Y-161633889D01*
X79914815Y-161925000D01*
X79943487Y-162216111D01*
X80028401Y-162496034D01*
X80166294Y-162754014D01*
X80351866Y-162980134D01*
X80577986Y-163165706D01*
X80642523Y-163200201D01*
X80525645Y-163269822D01*
X80309412Y-163464731D01*
X80135359Y-163698080D01*
X80010175Y-163960901D01*
X79965524Y-164108110D01*
X80086845Y-164338000D01*
X81280000Y-164338000D01*
X81280000Y-164318000D01*
X81534000Y-164318000D01*
X81534000Y-164338000D01*
X81554000Y-164338000D01*
X81554000Y-164592000D01*
X81534000Y-164592000D01*
X81534000Y-165785814D01*
X81763891Y-165906481D01*
X82038252Y-165809157D01*
X82288355Y-165660178D01*
X82504588Y-165465269D01*
X82675416Y-165236244D01*
X82706294Y-165294014D01*
X82891866Y-165520134D01*
X83117986Y-165705706D01*
X83375966Y-165843599D01*
X83655889Y-165928513D01*
X83874050Y-165950000D01*
X84019950Y-165950000D01*
X84238111Y-165928513D01*
X84518034Y-165843599D01*
X84776014Y-165705706D01*
X85002134Y-165520134D01*
X85187706Y-165294014D01*
X85325599Y-165036034D01*
X85410513Y-164756111D01*
X85439185Y-164465000D01*
X85429145Y-164363061D01*
X102216000Y-164363061D01*
X102216000Y-164566939D01*
X102255774Y-164766898D01*
X102333795Y-164955256D01*
X102447063Y-165124774D01*
X102591226Y-165268937D01*
X102760744Y-165382205D01*
X102949102Y-165460226D01*
X103149061Y-165500000D01*
X103352939Y-165500000D01*
X103552898Y-165460226D01*
X103741256Y-165382205D01*
X103910774Y-165268937D01*
X104054937Y-165124774D01*
X104168205Y-164955256D01*
X104246226Y-164766898D01*
X104286000Y-164566939D01*
X104286000Y-164363061D01*
X104246226Y-164163102D01*
X104168205Y-163974744D01*
X104054937Y-163805226D01*
X103910774Y-163661063D01*
X103741256Y-163547795D01*
X103552898Y-163469774D01*
X103352939Y-163430000D01*
X103149061Y-163430000D01*
X102949102Y-163469774D01*
X102760744Y-163547795D01*
X102591226Y-163661063D01*
X102447063Y-163805226D01*
X102333795Y-163974744D01*
X102255774Y-164163102D01*
X102216000Y-164363061D01*
X85429145Y-164363061D01*
X85410513Y-164173889D01*
X85325599Y-163893966D01*
X85187706Y-163635986D01*
X85002134Y-163409866D01*
X84776014Y-163224294D01*
X84721209Y-163195000D01*
X84776014Y-163165706D01*
X85002134Y-162980134D01*
X85187706Y-162754014D01*
X85325599Y-162496034D01*
X85410513Y-162216111D01*
X85439185Y-161925000D01*
X85410513Y-161633889D01*
X85325599Y-161353966D01*
X85187706Y-161095986D01*
X85002134Y-160869866D01*
X84776014Y-160684294D01*
X84721209Y-160655000D01*
X84776014Y-160625706D01*
X85002134Y-160440134D01*
X85187706Y-160214014D01*
X85325599Y-159956034D01*
X85410513Y-159676111D01*
X85439185Y-159385000D01*
X85410513Y-159093889D01*
X85325599Y-158813966D01*
X85187706Y-158555986D01*
X85002134Y-158329866D01*
X84776014Y-158144294D01*
X84721209Y-158115000D01*
X84776014Y-158085706D01*
X85002134Y-157900134D01*
X85187706Y-157674014D01*
X85325599Y-157416034D01*
X85410513Y-157136111D01*
X85411699Y-157124061D01*
X99549000Y-157124061D01*
X99549000Y-157327939D01*
X99588774Y-157527898D01*
X99666795Y-157716256D01*
X99780063Y-157885774D01*
X99924226Y-158029937D01*
X100093744Y-158143205D01*
X100282102Y-158221226D01*
X100482061Y-158261000D01*
X100685939Y-158261000D01*
X100885898Y-158221226D01*
X101074256Y-158143205D01*
X101243774Y-158029937D01*
X101387937Y-157885774D01*
X101501205Y-157716256D01*
X101579226Y-157527898D01*
X101619000Y-157327939D01*
X101619000Y-157218533D01*
X101752061Y-157245000D01*
X101955939Y-157245000D01*
X102155898Y-157205226D01*
X102343000Y-157127725D01*
X102343000Y-157327939D01*
X102382774Y-157527898D01*
X102460795Y-157716256D01*
X102515080Y-157797500D01*
X102460795Y-157878744D01*
X102382774Y-158067102D01*
X102343000Y-158267061D01*
X102343000Y-158470939D01*
X102382774Y-158670898D01*
X102460795Y-158859256D01*
X102574063Y-159028774D01*
X102718226Y-159172937D01*
X102887744Y-159286205D01*
X103076102Y-159364226D01*
X103276061Y-159404000D01*
X103479939Y-159404000D01*
X103679898Y-159364226D01*
X103868256Y-159286205D01*
X104037774Y-159172937D01*
X104181937Y-159028774D01*
X104295205Y-158859256D01*
X104373226Y-158670898D01*
X104413000Y-158470939D01*
X104413000Y-158267061D01*
X104411794Y-158261000D01*
X104495939Y-158261000D01*
X104695898Y-158221226D01*
X104884256Y-158143205D01*
X105053774Y-158029937D01*
X105197937Y-157885774D01*
X105311205Y-157716256D01*
X105389226Y-157527898D01*
X105429000Y-157327939D01*
X105429000Y-157124061D01*
X105389226Y-156924102D01*
X105311205Y-156735744D01*
X105256920Y-156654500D01*
X105311205Y-156573256D01*
X105389226Y-156384898D01*
X105429000Y-156184939D01*
X105429000Y-155981061D01*
X105389226Y-155781102D01*
X105311205Y-155592744D01*
X105256920Y-155511500D01*
X105311205Y-155430256D01*
X105389226Y-155241898D01*
X105429000Y-155041939D01*
X105429000Y-154838061D01*
X105389226Y-154638102D01*
X105311205Y-154449744D01*
X105197937Y-154280226D01*
X105053774Y-154136063D01*
X104884256Y-154022795D01*
X104695898Y-153944774D01*
X104495939Y-153905000D01*
X104292061Y-153905000D01*
X104092102Y-153944774D01*
X103903744Y-154022795D01*
X103886000Y-154034651D01*
X103868256Y-154022795D01*
X103679898Y-153944774D01*
X103479939Y-153905000D01*
X103276061Y-153905000D01*
X103076102Y-153944774D01*
X102887744Y-154022795D01*
X102718226Y-154136063D01*
X102574063Y-154280226D01*
X102460795Y-154449744D01*
X102382774Y-154638102D01*
X102343000Y-154838061D01*
X102343000Y-155041939D01*
X102382774Y-155241898D01*
X102426665Y-155347859D01*
X102344256Y-155292795D01*
X102155898Y-155214774D01*
X101955939Y-155175000D01*
X101752061Y-155175000D01*
X101552102Y-155214774D01*
X101363744Y-155292795D01*
X101194226Y-155406063D01*
X101050063Y-155550226D01*
X100936795Y-155719744D01*
X100858774Y-155908102D01*
X100819000Y-156108061D01*
X100819000Y-156217467D01*
X100685939Y-156191000D01*
X100482061Y-156191000D01*
X100282102Y-156230774D01*
X100093744Y-156308795D01*
X99924226Y-156422063D01*
X99780063Y-156566226D01*
X99666795Y-156735744D01*
X99588774Y-156924102D01*
X99549000Y-157124061D01*
X85411699Y-157124061D01*
X85439185Y-156845000D01*
X85410513Y-156553889D01*
X85325599Y-156273966D01*
X85187706Y-156015986D01*
X85002134Y-155789866D01*
X84776014Y-155604294D01*
X84721209Y-155575000D01*
X84776014Y-155545706D01*
X85002134Y-155360134D01*
X85187706Y-155134014D01*
X85325599Y-154876034D01*
X85410513Y-154596111D01*
X85439185Y-154305000D01*
X85410513Y-154013889D01*
X85325599Y-153733966D01*
X85187706Y-153475986D01*
X85002134Y-153249866D01*
X84776014Y-153064294D01*
X84721209Y-153035000D01*
X84776014Y-153005706D01*
X85002134Y-152820134D01*
X85187706Y-152594014D01*
X85325599Y-152336034D01*
X85410513Y-152056111D01*
X85439185Y-151765000D01*
X85410513Y-151473889D01*
X85352323Y-151282061D01*
X99676000Y-151282061D01*
X99676000Y-151485939D01*
X99715774Y-151685898D01*
X99793795Y-151874256D01*
X99805651Y-151892000D01*
X99793795Y-151909744D01*
X99715774Y-152098102D01*
X99676000Y-152298061D01*
X99676000Y-152501939D01*
X99715774Y-152701898D01*
X99793795Y-152890256D01*
X99907063Y-153059774D01*
X100051226Y-153203937D01*
X100220744Y-153317205D01*
X100409102Y-153395226D01*
X100609061Y-153435000D01*
X100812939Y-153435000D01*
X101012898Y-153395226D01*
X101201256Y-153317205D01*
X101219000Y-153305349D01*
X101236744Y-153317205D01*
X101425102Y-153395226D01*
X101625061Y-153435000D01*
X101828939Y-153435000D01*
X102028898Y-153395226D01*
X102217256Y-153317205D01*
X102298500Y-153262920D01*
X102379744Y-153317205D01*
X102568102Y-153395226D01*
X102768061Y-153435000D01*
X102971939Y-153435000D01*
X103171898Y-153395226D01*
X103360256Y-153317205D01*
X103529774Y-153203937D01*
X103673937Y-153059774D01*
X103787205Y-152890256D01*
X103865226Y-152701898D01*
X103905000Y-152501939D01*
X103905000Y-152298061D01*
X103898263Y-152264193D01*
X104038061Y-152292000D01*
X104241939Y-152292000D01*
X104381737Y-152264193D01*
X104375000Y-152298061D01*
X104375000Y-152501939D01*
X104414774Y-152701898D01*
X104492795Y-152890256D01*
X104606063Y-153059774D01*
X104750226Y-153203937D01*
X104919744Y-153317205D01*
X105108102Y-153395226D01*
X105308061Y-153435000D01*
X105511939Y-153435000D01*
X105711898Y-153395226D01*
X105899000Y-153317725D01*
X105899000Y-153517939D01*
X105938774Y-153717898D01*
X106016795Y-153906256D01*
X106130063Y-154075774D01*
X106274226Y-154219937D01*
X106401532Y-154305000D01*
X106274226Y-154390063D01*
X106130063Y-154534226D01*
X106016795Y-154703744D01*
X105938774Y-154892102D01*
X105899000Y-155092061D01*
X105899000Y-155295939D01*
X105938774Y-155495898D01*
X106016795Y-155684256D01*
X106130063Y-155853774D01*
X106274226Y-155997937D01*
X106443744Y-156111205D01*
X106632102Y-156189226D01*
X106832061Y-156229000D01*
X107035939Y-156229000D01*
X107235898Y-156189226D01*
X107424256Y-156111205D01*
X107593774Y-155997937D01*
X107737937Y-155853774D01*
X107851205Y-155684256D01*
X107929226Y-155495898D01*
X107969000Y-155295939D01*
X107969000Y-155092061D01*
X107929226Y-154892102D01*
X107851205Y-154703744D01*
X107737937Y-154534226D01*
X107593774Y-154390063D01*
X107466468Y-154305000D01*
X107593774Y-154219937D01*
X107737937Y-154075774D01*
X107851205Y-153906256D01*
X107929226Y-153717898D01*
X107969000Y-153517939D01*
X107969000Y-153314061D01*
X107929226Y-153114102D01*
X107851205Y-152925744D01*
X107737937Y-152756226D01*
X107593774Y-152612063D01*
X107424256Y-152498795D01*
X107235898Y-152420774D01*
X107035939Y-152381000D01*
X106832061Y-152381000D01*
X106632102Y-152420774D01*
X106445000Y-152498275D01*
X106445000Y-152298061D01*
X106405226Y-152098102D01*
X106327205Y-151909744D01*
X106213937Y-151740226D01*
X106069774Y-151596063D01*
X105900256Y-151482795D01*
X105711898Y-151404774D01*
X105511939Y-151365000D01*
X105308061Y-151365000D01*
X105168263Y-151392807D01*
X105175000Y-151358939D01*
X105175000Y-151155061D01*
X105135226Y-150955102D01*
X105057205Y-150766744D01*
X104943937Y-150597226D01*
X104799774Y-150453063D01*
X104630256Y-150339795D01*
X104441898Y-150261774D01*
X104241939Y-150222000D01*
X104038061Y-150222000D01*
X103838102Y-150261774D01*
X103649744Y-150339795D01*
X103480226Y-150453063D01*
X103336063Y-150597226D01*
X103222795Y-150766744D01*
X103144774Y-150955102D01*
X103105000Y-151155061D01*
X103105000Y-151358939D01*
X103111737Y-151392807D01*
X102971939Y-151365000D01*
X102768061Y-151365000D01*
X102762000Y-151366206D01*
X102762000Y-151282061D01*
X102722226Y-151082102D01*
X102644205Y-150893744D01*
X102530937Y-150724226D01*
X102386774Y-150580063D01*
X102217256Y-150466795D01*
X102028898Y-150388774D01*
X101828939Y-150349000D01*
X101625061Y-150349000D01*
X101425102Y-150388774D01*
X101236744Y-150466795D01*
X101219000Y-150478651D01*
X101201256Y-150466795D01*
X101012898Y-150388774D01*
X100812939Y-150349000D01*
X100609061Y-150349000D01*
X100409102Y-150388774D01*
X100220744Y-150466795D01*
X100051226Y-150580063D01*
X99907063Y-150724226D01*
X99793795Y-150893744D01*
X99715774Y-151082102D01*
X99676000Y-151282061D01*
X85352323Y-151282061D01*
X85325599Y-151193966D01*
X85187706Y-150935986D01*
X85002134Y-150709866D01*
X84776014Y-150524294D01*
X84721209Y-150495000D01*
X84776014Y-150465706D01*
X85002134Y-150280134D01*
X85187706Y-150054014D01*
X85325599Y-149796034D01*
X85410513Y-149516111D01*
X85439185Y-149225000D01*
X85410513Y-148933889D01*
X85325599Y-148653966D01*
X85187706Y-148395986D01*
X85002134Y-148169866D01*
X84776014Y-147984294D01*
X84721209Y-147955000D01*
X84776014Y-147925706D01*
X85002134Y-147740134D01*
X85187706Y-147514014D01*
X85325599Y-147256034D01*
X85410513Y-146976111D01*
X85439185Y-146685000D01*
X85410513Y-146393889D01*
X85325599Y-146113966D01*
X85187706Y-145855986D01*
X85002134Y-145629866D01*
X84776014Y-145444294D01*
X84721209Y-145415000D01*
X84776014Y-145385706D01*
X85002134Y-145200134D01*
X85187706Y-144974014D01*
X85325599Y-144716034D01*
X85337118Y-144678061D01*
X102216000Y-144678061D01*
X102216000Y-144881939D01*
X102255774Y-145081898D01*
X102333795Y-145270256D01*
X102447063Y-145439774D01*
X102591226Y-145583937D01*
X102760744Y-145697205D01*
X102949102Y-145775226D01*
X103149061Y-145815000D01*
X103352939Y-145815000D01*
X103552898Y-145775226D01*
X103741256Y-145697205D01*
X103910774Y-145583937D01*
X104054937Y-145439774D01*
X104168205Y-145270256D01*
X104246226Y-145081898D01*
X104286000Y-144881939D01*
X104286000Y-144678061D01*
X104246226Y-144478102D01*
X104168205Y-144289744D01*
X104054937Y-144120226D01*
X103910774Y-143976063D01*
X103741256Y-143862795D01*
X103552898Y-143784774D01*
X103352939Y-143745000D01*
X103149061Y-143745000D01*
X102949102Y-143784774D01*
X102760744Y-143862795D01*
X102591226Y-143976063D01*
X102447063Y-144120226D01*
X102333795Y-144289744D01*
X102255774Y-144478102D01*
X102216000Y-144678061D01*
X85337118Y-144678061D01*
X85410513Y-144436111D01*
X85439185Y-144145000D01*
X85410513Y-143853889D01*
X85325599Y-143573966D01*
X85187706Y-143315986D01*
X85002134Y-143089866D01*
X84776014Y-142904294D01*
X84721209Y-142875000D01*
X84776014Y-142845706D01*
X85002134Y-142660134D01*
X85187706Y-142434014D01*
X85325599Y-142176034D01*
X85410513Y-141896111D01*
X85439185Y-141605000D01*
X85410513Y-141313889D01*
X85325599Y-141033966D01*
X85187706Y-140775986D01*
X85002134Y-140549866D01*
X84776014Y-140364294D01*
X84721209Y-140335000D01*
X84776014Y-140305706D01*
X85002134Y-140120134D01*
X85187706Y-139894014D01*
X85325599Y-139636034D01*
X85375643Y-139471061D01*
X98406000Y-139471061D01*
X98406000Y-139674939D01*
X98445774Y-139874898D01*
X98523795Y-140063256D01*
X98637063Y-140232774D01*
X98781226Y-140376937D01*
X98950744Y-140490205D01*
X99139102Y-140568226D01*
X99339061Y-140608000D01*
X99542939Y-140608000D01*
X99742898Y-140568226D01*
X99931256Y-140490205D01*
X100100774Y-140376937D01*
X100244937Y-140232774D01*
X100358205Y-140063256D01*
X100436226Y-139874898D01*
X100476000Y-139674939D01*
X100476000Y-139598061D01*
X107804000Y-139598061D01*
X107804000Y-139801939D01*
X107843774Y-140001898D01*
X107921795Y-140190256D01*
X108035063Y-140359774D01*
X108179226Y-140503937D01*
X108348744Y-140617205D01*
X108537102Y-140695226D01*
X108737061Y-140735000D01*
X108940939Y-140735000D01*
X109140898Y-140695226D01*
X109329256Y-140617205D01*
X109498774Y-140503937D01*
X109642937Y-140359774D01*
X109756205Y-140190256D01*
X109834226Y-140001898D01*
X109874000Y-139801939D01*
X109874000Y-139598061D01*
X109834226Y-139398102D01*
X109756205Y-139209744D01*
X109642937Y-139040226D01*
X109498774Y-138896063D01*
X109329256Y-138782795D01*
X109140898Y-138704774D01*
X108940939Y-138665000D01*
X108737061Y-138665000D01*
X108537102Y-138704774D01*
X108348744Y-138782795D01*
X108179226Y-138896063D01*
X108035063Y-139040226D01*
X107921795Y-139209744D01*
X107843774Y-139398102D01*
X107804000Y-139598061D01*
X100476000Y-139598061D01*
X100476000Y-139471061D01*
X100436226Y-139271102D01*
X100358205Y-139082744D01*
X100244937Y-138913226D01*
X100100774Y-138769063D01*
X99931256Y-138655795D01*
X99742898Y-138577774D01*
X99542939Y-138538000D01*
X99339061Y-138538000D01*
X99139102Y-138577774D01*
X98950744Y-138655795D01*
X98781226Y-138769063D01*
X98637063Y-138913226D01*
X98523795Y-139082744D01*
X98445774Y-139271102D01*
X98406000Y-139471061D01*
X85375643Y-139471061D01*
X85410513Y-139356111D01*
X85439185Y-139065000D01*
X85410513Y-138773889D01*
X85325599Y-138493966D01*
X85187706Y-138235986D01*
X85002134Y-138009866D01*
X84776014Y-137824294D01*
X84721209Y-137795000D01*
X84776014Y-137765706D01*
X85002134Y-137580134D01*
X85187706Y-137354014D01*
X85325599Y-137096034D01*
X85410513Y-136816111D01*
X85439185Y-136525000D01*
X85410513Y-136233889D01*
X85325599Y-135953966D01*
X85187706Y-135695986D01*
X85002134Y-135469866D01*
X84776014Y-135284294D01*
X84721209Y-135255000D01*
X84776014Y-135225706D01*
X85002134Y-135040134D01*
X85187706Y-134814014D01*
X85325599Y-134556034D01*
X85337118Y-134518061D01*
X98279000Y-134518061D01*
X98279000Y-134721939D01*
X98318774Y-134921898D01*
X98396795Y-135110256D01*
X98510063Y-135279774D01*
X98654226Y-135423937D01*
X98823744Y-135537205D01*
X99012102Y-135615226D01*
X99212061Y-135655000D01*
X99415939Y-135655000D01*
X99615898Y-135615226D01*
X99804256Y-135537205D01*
X99973774Y-135423937D01*
X100117937Y-135279774D01*
X100231205Y-135110256D01*
X100309226Y-134921898D01*
X100330000Y-134817459D01*
X100350774Y-134921898D01*
X100428795Y-135110256D01*
X100542063Y-135279774D01*
X100686226Y-135423937D01*
X100855744Y-135537205D01*
X101044102Y-135615226D01*
X101244061Y-135655000D01*
X101447939Y-135655000D01*
X101647898Y-135615226D01*
X101836256Y-135537205D01*
X102005774Y-135423937D01*
X102149937Y-135279774D01*
X102263205Y-135110256D01*
X102341226Y-134921898D01*
X102381000Y-134721939D01*
X102381000Y-134518061D01*
X106026000Y-134518061D01*
X106026000Y-134721939D01*
X106065774Y-134921898D01*
X106143795Y-135110256D01*
X106257063Y-135279774D01*
X106401226Y-135423937D01*
X106570744Y-135537205D01*
X106759102Y-135615226D01*
X106959061Y-135655000D01*
X107162939Y-135655000D01*
X107362898Y-135615226D01*
X107551256Y-135537205D01*
X107720774Y-135423937D01*
X107864937Y-135279774D01*
X107978205Y-135110256D01*
X108013500Y-135025047D01*
X108048795Y-135110256D01*
X108162063Y-135279774D01*
X108306226Y-135423937D01*
X108475744Y-135537205D01*
X108664102Y-135615226D01*
X108864061Y-135655000D01*
X109067939Y-135655000D01*
X109267898Y-135615226D01*
X109456256Y-135537205D01*
X109625774Y-135423937D01*
X109769937Y-135279774D01*
X109883205Y-135110256D01*
X109961226Y-134921898D01*
X110001000Y-134721939D01*
X110001000Y-134518061D01*
X109961226Y-134318102D01*
X109883205Y-134129744D01*
X109786491Y-133985000D01*
X123094815Y-133985000D01*
X123123487Y-134276111D01*
X123208401Y-134556034D01*
X123346294Y-134814014D01*
X123531866Y-135040134D01*
X123757986Y-135225706D01*
X123812791Y-135255000D01*
X123757986Y-135284294D01*
X123531866Y-135469866D01*
X123346294Y-135695986D01*
X123208401Y-135953966D01*
X123123487Y-136233889D01*
X123094815Y-136525000D01*
X123123487Y-136816111D01*
X123208401Y-137096034D01*
X123346294Y-137354014D01*
X123531866Y-137580134D01*
X123757986Y-137765706D01*
X123812791Y-137795000D01*
X123757986Y-137824294D01*
X123531866Y-138009866D01*
X123346294Y-138235986D01*
X123208401Y-138493966D01*
X123123487Y-138773889D01*
X123094815Y-139065000D01*
X123123487Y-139356111D01*
X123208401Y-139636034D01*
X123346294Y-139894014D01*
X123531866Y-140120134D01*
X123757986Y-140305706D01*
X123812791Y-140335000D01*
X123757986Y-140364294D01*
X123531866Y-140549866D01*
X123346294Y-140775986D01*
X123208401Y-141033966D01*
X123123487Y-141313889D01*
X123094815Y-141605000D01*
X123123487Y-141896111D01*
X123208401Y-142176034D01*
X123346294Y-142434014D01*
X123531866Y-142660134D01*
X123757986Y-142845706D01*
X123812791Y-142875000D01*
X123757986Y-142904294D01*
X123531866Y-143089866D01*
X123346294Y-143315986D01*
X123208401Y-143573966D01*
X123123487Y-143853889D01*
X123094815Y-144145000D01*
X123123487Y-144436111D01*
X123208401Y-144716034D01*
X123346294Y-144974014D01*
X123531866Y-145200134D01*
X123757986Y-145385706D01*
X123812791Y-145415000D01*
X123757986Y-145444294D01*
X123531866Y-145629866D01*
X123346294Y-145855986D01*
X123208401Y-146113966D01*
X123123487Y-146393889D01*
X123094815Y-146685000D01*
X123123487Y-146976111D01*
X123208401Y-147256034D01*
X123346294Y-147514014D01*
X123531866Y-147740134D01*
X123757986Y-147925706D01*
X123812791Y-147955000D01*
X123757986Y-147984294D01*
X123531866Y-148169866D01*
X123346294Y-148395986D01*
X123208401Y-148653966D01*
X123123487Y-148933889D01*
X123094815Y-149225000D01*
X123123487Y-149516111D01*
X123208401Y-149796034D01*
X123346294Y-150054014D01*
X123531866Y-150280134D01*
X123757986Y-150465706D01*
X123812791Y-150495000D01*
X123757986Y-150524294D01*
X123531866Y-150709866D01*
X123346294Y-150935986D01*
X123208401Y-151193966D01*
X123123487Y-151473889D01*
X123094815Y-151765000D01*
X123123487Y-152056111D01*
X123208401Y-152336034D01*
X123346294Y-152594014D01*
X123531866Y-152820134D01*
X123757986Y-153005706D01*
X123812791Y-153035000D01*
X123757986Y-153064294D01*
X123531866Y-153249866D01*
X123346294Y-153475986D01*
X123208401Y-153733966D01*
X123123487Y-154013889D01*
X123094815Y-154305000D01*
X123123487Y-154596111D01*
X123208401Y-154876034D01*
X123346294Y-155134014D01*
X123531866Y-155360134D01*
X123757986Y-155545706D01*
X123812791Y-155575000D01*
X123757986Y-155604294D01*
X123531866Y-155789866D01*
X123346294Y-156015986D01*
X123208401Y-156273966D01*
X123123487Y-156553889D01*
X123094815Y-156845000D01*
X123123487Y-157136111D01*
X123208401Y-157416034D01*
X123346294Y-157674014D01*
X123531866Y-157900134D01*
X123757986Y-158085706D01*
X123812791Y-158115000D01*
X123757986Y-158144294D01*
X123531866Y-158329866D01*
X123346294Y-158555986D01*
X123208401Y-158813966D01*
X123123487Y-159093889D01*
X123094815Y-159385000D01*
X123123487Y-159676111D01*
X123208401Y-159956034D01*
X123346294Y-160214014D01*
X123531866Y-160440134D01*
X123757986Y-160625706D01*
X123812791Y-160655000D01*
X123757986Y-160684294D01*
X123531866Y-160869866D01*
X123346294Y-161095986D01*
X123208401Y-161353966D01*
X123123487Y-161633889D01*
X123094815Y-161925000D01*
X123123487Y-162216111D01*
X123208401Y-162496034D01*
X123346294Y-162754014D01*
X123531866Y-162980134D01*
X123757986Y-163165706D01*
X123812791Y-163195000D01*
X123757986Y-163224294D01*
X123531866Y-163409866D01*
X123346294Y-163635986D01*
X123208401Y-163893966D01*
X123123487Y-164173889D01*
X123094815Y-164465000D01*
X123123487Y-164756111D01*
X123208401Y-165036034D01*
X123346294Y-165294014D01*
X123531866Y-165520134D01*
X123757986Y-165705706D01*
X124015966Y-165843599D01*
X124295889Y-165928513D01*
X124514050Y-165950000D01*
X124659950Y-165950000D01*
X124878111Y-165928513D01*
X125158034Y-165843599D01*
X125416014Y-165705706D01*
X125642134Y-165520134D01*
X125666607Y-165490313D01*
X125687498Y-165559180D01*
X125746463Y-165669494D01*
X125825815Y-165766185D01*
X125922506Y-165845537D01*
X126032820Y-165904502D01*
X126152518Y-165940812D01*
X126277000Y-165953072D01*
X126841250Y-165950000D01*
X127000000Y-165791250D01*
X127000000Y-164592000D01*
X127254000Y-164592000D01*
X127254000Y-165791250D01*
X127412750Y-165950000D01*
X127977000Y-165953072D01*
X128101482Y-165940812D01*
X128221180Y-165904502D01*
X128331494Y-165845537D01*
X128428185Y-165766185D01*
X128507537Y-165669494D01*
X128566502Y-165559180D01*
X128602812Y-165439482D01*
X128615072Y-165315000D01*
X128612000Y-164750750D01*
X128453250Y-164592000D01*
X127254000Y-164592000D01*
X127000000Y-164592000D01*
X126980000Y-164592000D01*
X126980000Y-164338000D01*
X127000000Y-164338000D01*
X127000000Y-164318000D01*
X127254000Y-164318000D01*
X127254000Y-164338000D01*
X128453250Y-164338000D01*
X128612000Y-164179250D01*
X128615072Y-163615000D01*
X128602812Y-163490518D01*
X128566502Y-163370820D01*
X128507537Y-163260506D01*
X128428185Y-163163815D01*
X128331494Y-163084463D01*
X128221180Y-163025498D01*
X128152313Y-163004607D01*
X128182134Y-162980134D01*
X128367706Y-162754014D01*
X128505599Y-162496034D01*
X128590513Y-162216111D01*
X128619185Y-161925000D01*
X128590513Y-161633889D01*
X128505599Y-161353966D01*
X128367706Y-161095986D01*
X128182134Y-160869866D01*
X127956014Y-160684294D01*
X127901209Y-160655000D01*
X127956014Y-160625706D01*
X128182134Y-160440134D01*
X128367706Y-160214014D01*
X128505599Y-159956034D01*
X128590513Y-159676111D01*
X128619185Y-159385000D01*
X128590513Y-159093889D01*
X128505599Y-158813966D01*
X128367706Y-158555986D01*
X128182134Y-158329866D01*
X127956014Y-158144294D01*
X127901209Y-158115000D01*
X127956014Y-158085706D01*
X128182134Y-157900134D01*
X128367706Y-157674014D01*
X128505599Y-157416034D01*
X128590513Y-157136111D01*
X128619185Y-156845000D01*
X128590513Y-156553889D01*
X128505599Y-156273966D01*
X128367706Y-156015986D01*
X128182134Y-155789866D01*
X127956014Y-155604294D01*
X127901209Y-155575000D01*
X127956014Y-155545706D01*
X128182134Y-155360134D01*
X128367706Y-155134014D01*
X128505599Y-154876034D01*
X128590513Y-154596111D01*
X128619185Y-154305000D01*
X128590513Y-154013889D01*
X128505599Y-153733966D01*
X128367706Y-153475986D01*
X128182134Y-153249866D01*
X127956014Y-153064294D01*
X127901209Y-153035000D01*
X127956014Y-153005706D01*
X128182134Y-152820134D01*
X128367706Y-152594014D01*
X128505599Y-152336034D01*
X128590513Y-152056111D01*
X128619185Y-151765000D01*
X128590513Y-151473889D01*
X128505599Y-151193966D01*
X128367706Y-150935986D01*
X128182134Y-150709866D01*
X127956014Y-150524294D01*
X127901209Y-150495000D01*
X127956014Y-150465706D01*
X128182134Y-150280134D01*
X128367706Y-150054014D01*
X128505599Y-149796034D01*
X128590513Y-149516111D01*
X128619185Y-149225000D01*
X128590513Y-148933889D01*
X128505599Y-148653966D01*
X128367706Y-148395986D01*
X128182134Y-148169866D01*
X127956014Y-147984294D01*
X127901209Y-147955000D01*
X127956014Y-147925706D01*
X128182134Y-147740134D01*
X128367706Y-147514014D01*
X128505599Y-147256034D01*
X128590513Y-146976111D01*
X128619185Y-146685000D01*
X128590513Y-146393889D01*
X128505599Y-146113966D01*
X128367706Y-145855986D01*
X128182134Y-145629866D01*
X127956014Y-145444294D01*
X127901209Y-145415000D01*
X127956014Y-145385706D01*
X128182134Y-145200134D01*
X128367706Y-144974014D01*
X128505599Y-144716034D01*
X128590513Y-144436111D01*
X128619185Y-144145000D01*
X128590513Y-143853889D01*
X128505599Y-143573966D01*
X128367706Y-143315986D01*
X128182134Y-143089866D01*
X127956014Y-142904294D01*
X127901209Y-142875000D01*
X127956014Y-142845706D01*
X128182134Y-142660134D01*
X128367706Y-142434014D01*
X128505599Y-142176034D01*
X128590513Y-141896111D01*
X128619185Y-141605000D01*
X128590513Y-141313889D01*
X128505599Y-141033966D01*
X128367706Y-140775986D01*
X128182134Y-140549866D01*
X127956014Y-140364294D01*
X127901209Y-140335000D01*
X127956014Y-140305706D01*
X128182134Y-140120134D01*
X128367706Y-139894014D01*
X128505599Y-139636034D01*
X128590513Y-139356111D01*
X128619185Y-139065000D01*
X128590513Y-138773889D01*
X128505599Y-138493966D01*
X128367706Y-138235986D01*
X128182134Y-138009866D01*
X127956014Y-137824294D01*
X127901209Y-137795000D01*
X127956014Y-137765706D01*
X128182134Y-137580134D01*
X128367706Y-137354014D01*
X128505599Y-137096034D01*
X128590513Y-136816111D01*
X128619185Y-136525000D01*
X128590513Y-136233889D01*
X128505599Y-135953966D01*
X128367706Y-135695986D01*
X128182134Y-135469866D01*
X127956014Y-135284294D01*
X127891477Y-135249799D01*
X128008355Y-135180178D01*
X128224588Y-134985269D01*
X128398641Y-134751920D01*
X128523825Y-134489099D01*
X128568476Y-134341890D01*
X128447155Y-134112000D01*
X127254000Y-134112000D01*
X127254000Y-134132000D01*
X127000000Y-134132000D01*
X127000000Y-134112000D01*
X126980000Y-134112000D01*
X126980000Y-133858000D01*
X127000000Y-133858000D01*
X127000000Y-132664186D01*
X127254000Y-132664186D01*
X127254000Y-133858000D01*
X128447155Y-133858000D01*
X128568476Y-133628110D01*
X128523825Y-133480901D01*
X128398641Y-133218080D01*
X128224588Y-132984731D01*
X128008355Y-132789822D01*
X127758252Y-132640843D01*
X127483891Y-132543519D01*
X127254000Y-132664186D01*
X127000000Y-132664186D01*
X126770109Y-132543519D01*
X126495748Y-132640843D01*
X126245645Y-132789822D01*
X126029412Y-132984731D01*
X125858584Y-133213756D01*
X125827706Y-133155986D01*
X125642134Y-132929866D01*
X125416014Y-132744294D01*
X125158034Y-132606401D01*
X124878111Y-132521487D01*
X124659950Y-132500000D01*
X124514050Y-132500000D01*
X124295889Y-132521487D01*
X124015966Y-132606401D01*
X123757986Y-132744294D01*
X123531866Y-132929866D01*
X123346294Y-133155986D01*
X123208401Y-133413966D01*
X123123487Y-133693889D01*
X123094815Y-133985000D01*
X109786491Y-133985000D01*
X109769937Y-133960226D01*
X109625774Y-133816063D01*
X109456256Y-133702795D01*
X109267898Y-133624774D01*
X109067939Y-133585000D01*
X108864061Y-133585000D01*
X108664102Y-133624774D01*
X108475744Y-133702795D01*
X108306226Y-133816063D01*
X108162063Y-133960226D01*
X108048795Y-134129744D01*
X108013500Y-134214953D01*
X107978205Y-134129744D01*
X107864937Y-133960226D01*
X107720774Y-133816063D01*
X107551256Y-133702795D01*
X107362898Y-133624774D01*
X107162939Y-133585000D01*
X106959061Y-133585000D01*
X106759102Y-133624774D01*
X106570744Y-133702795D01*
X106401226Y-133816063D01*
X106257063Y-133960226D01*
X106143795Y-134129744D01*
X106065774Y-134318102D01*
X106026000Y-134518061D01*
X102381000Y-134518061D01*
X102341226Y-134318102D01*
X102263205Y-134129744D01*
X102149937Y-133960226D01*
X102005774Y-133816063D01*
X101836256Y-133702795D01*
X101647898Y-133624774D01*
X101447939Y-133585000D01*
X101244061Y-133585000D01*
X101044102Y-133624774D01*
X100855744Y-133702795D01*
X100686226Y-133816063D01*
X100542063Y-133960226D01*
X100428795Y-134129744D01*
X100350774Y-134318102D01*
X100330000Y-134422541D01*
X100309226Y-134318102D01*
X100231205Y-134129744D01*
X100117937Y-133960226D01*
X99973774Y-133816063D01*
X99804256Y-133702795D01*
X99615898Y-133624774D01*
X99415939Y-133585000D01*
X99212061Y-133585000D01*
X99012102Y-133624774D01*
X98823744Y-133702795D01*
X98654226Y-133816063D01*
X98510063Y-133960226D01*
X98396795Y-134129744D01*
X98318774Y-134318102D01*
X98279000Y-134518061D01*
X85337118Y-134518061D01*
X85410513Y-134276111D01*
X85439185Y-133985000D01*
X85410513Y-133693889D01*
X85325599Y-133413966D01*
X85187706Y-133155986D01*
X85002134Y-132929866D01*
X84776014Y-132744294D01*
X84518034Y-132606401D01*
X84238111Y-132521487D01*
X84019950Y-132500000D01*
X83874050Y-132500000D01*
X83655889Y-132521487D01*
X83375966Y-132606401D01*
X83117986Y-132744294D01*
X82891866Y-132929866D01*
X82867393Y-132959687D01*
X82846502Y-132890820D01*
X82787537Y-132780506D01*
X82708185Y-132683815D01*
X82611494Y-132604463D01*
X82501180Y-132545498D01*
X82381482Y-132509188D01*
X82257000Y-132496928D01*
X81692750Y-132500000D01*
X81534000Y-132658750D01*
X81534000Y-133858000D01*
X81554000Y-133858000D01*
X81554000Y-134112000D01*
X81534000Y-134112000D01*
X81534000Y-134132000D01*
X81280000Y-134132000D01*
X81280000Y-134112000D01*
X80080750Y-134112000D01*
X79922000Y-134270750D01*
X79918928Y-134835000D01*
X79931188Y-134959482D01*
X79967498Y-135079180D01*
X80026463Y-135189494D01*
X80105815Y-135286185D01*
X80202506Y-135365537D01*
X80312820Y-135424502D01*
X80381687Y-135445393D01*
X80351866Y-135469866D01*
X80166294Y-135695986D01*
X80028401Y-135953966D01*
X79943487Y-136233889D01*
X79914815Y-136525000D01*
X76860000Y-136525000D01*
X76860000Y-133135000D01*
X79918928Y-133135000D01*
X79922000Y-133699250D01*
X80080750Y-133858000D01*
X81280000Y-133858000D01*
X81280000Y-132658750D01*
X81121250Y-132500000D01*
X80557000Y-132496928D01*
X80432518Y-132509188D01*
X80312820Y-132545498D01*
X80202506Y-132604463D01*
X80105815Y-132683815D01*
X80026463Y-132780506D01*
X79967498Y-132890820D01*
X79931188Y-133010518D01*
X79918928Y-133135000D01*
X76860000Y-133135000D01*
X76860000Y-128930061D01*
X79991000Y-128930061D01*
X79991000Y-129133939D01*
X80030774Y-129333898D01*
X80108795Y-129522256D01*
X80222063Y-129691774D01*
X80366226Y-129835937D01*
X80535744Y-129949205D01*
X80724102Y-130027226D01*
X80924061Y-130067000D01*
X81041026Y-130067000D01*
X81046774Y-130095898D01*
X81124795Y-130284256D01*
X81238063Y-130453774D01*
X81382226Y-130597937D01*
X81551744Y-130711205D01*
X81740102Y-130789226D01*
X81940061Y-130829000D01*
X82143939Y-130829000D01*
X82343898Y-130789226D01*
X82532256Y-130711205D01*
X82701774Y-130597937D01*
X82845937Y-130453774D01*
X82959205Y-130284256D01*
X83037226Y-130095898D01*
X83077000Y-129895939D01*
X83077000Y-129692061D01*
X83037226Y-129492102D01*
X82959205Y-129303744D01*
X82845937Y-129134226D01*
X82701774Y-128990063D01*
X82574468Y-128905000D01*
X87534815Y-128905000D01*
X87563487Y-129196111D01*
X87648401Y-129476034D01*
X87786294Y-129734014D01*
X87971866Y-129960134D01*
X88197986Y-130145706D01*
X88455966Y-130283599D01*
X88735889Y-130368513D01*
X88954050Y-130390000D01*
X89099950Y-130390000D01*
X89318111Y-130368513D01*
X89598034Y-130283599D01*
X89856014Y-130145706D01*
X90082134Y-129960134D01*
X90267706Y-129734014D01*
X90297000Y-129679209D01*
X90326294Y-129734014D01*
X90511866Y-129960134D01*
X90737986Y-130145706D01*
X90995966Y-130283599D01*
X91275889Y-130368513D01*
X91494050Y-130390000D01*
X91639950Y-130390000D01*
X91858111Y-130368513D01*
X92138034Y-130283599D01*
X92396014Y-130145706D01*
X92622134Y-129960134D01*
X92807706Y-129734014D01*
X92837000Y-129679209D01*
X92866294Y-129734014D01*
X93051866Y-129960134D01*
X93277986Y-130145706D01*
X93535966Y-130283599D01*
X93815889Y-130368513D01*
X94034050Y-130390000D01*
X94179950Y-130390000D01*
X94398111Y-130368513D01*
X94678034Y-130283599D01*
X94936014Y-130145706D01*
X95162134Y-129960134D01*
X95347706Y-129734014D01*
X95377000Y-129679209D01*
X95406294Y-129734014D01*
X95591866Y-129960134D01*
X95817986Y-130145706D01*
X96075966Y-130283599D01*
X96355889Y-130368513D01*
X96574050Y-130390000D01*
X96719950Y-130390000D01*
X96938111Y-130368513D01*
X97218034Y-130283599D01*
X97476014Y-130145706D01*
X97702134Y-129960134D01*
X97887706Y-129734014D01*
X97917000Y-129679209D01*
X97946294Y-129734014D01*
X98131866Y-129960134D01*
X98357986Y-130145706D01*
X98615966Y-130283599D01*
X98895889Y-130368513D01*
X99114050Y-130390000D01*
X99259950Y-130390000D01*
X99478111Y-130368513D01*
X99758034Y-130283599D01*
X100016014Y-130145706D01*
X100242134Y-129960134D01*
X100427706Y-129734014D01*
X100457000Y-129679209D01*
X100486294Y-129734014D01*
X100671866Y-129960134D01*
X100897986Y-130145706D01*
X101155966Y-130283599D01*
X101435889Y-130368513D01*
X101654050Y-130390000D01*
X101799950Y-130390000D01*
X102018111Y-130368513D01*
X102298034Y-130283599D01*
X102556014Y-130145706D01*
X102782134Y-129960134D01*
X102967706Y-129734014D01*
X102997000Y-129679209D01*
X103026294Y-129734014D01*
X103211866Y-129960134D01*
X103437986Y-130145706D01*
X103695966Y-130283599D01*
X103975889Y-130368513D01*
X104194050Y-130390000D01*
X104339950Y-130390000D01*
X104558111Y-130368513D01*
X104838034Y-130283599D01*
X105096014Y-130145706D01*
X105322134Y-129960134D01*
X105507706Y-129734014D01*
X105537000Y-129679209D01*
X105566294Y-129734014D01*
X105751866Y-129960134D01*
X105977986Y-130145706D01*
X106235966Y-130283599D01*
X106515889Y-130368513D01*
X106734050Y-130390000D01*
X106879950Y-130390000D01*
X107098111Y-130368513D01*
X107378034Y-130283599D01*
X107636014Y-130145706D01*
X107862134Y-129960134D01*
X108047706Y-129734014D01*
X108077000Y-129679209D01*
X108106294Y-129734014D01*
X108291866Y-129960134D01*
X108517986Y-130145706D01*
X108775966Y-130283599D01*
X109055889Y-130368513D01*
X109274050Y-130390000D01*
X109419950Y-130390000D01*
X109638111Y-130368513D01*
X109918034Y-130283599D01*
X110176014Y-130145706D01*
X110402134Y-129960134D01*
X110587706Y-129734014D01*
X110617000Y-129679209D01*
X110646294Y-129734014D01*
X110831866Y-129960134D01*
X111057986Y-130145706D01*
X111315966Y-130283599D01*
X111595889Y-130368513D01*
X111814050Y-130390000D01*
X111959950Y-130390000D01*
X112178111Y-130368513D01*
X112458034Y-130283599D01*
X112716014Y-130145706D01*
X112942134Y-129960134D01*
X113127706Y-129734014D01*
X113157000Y-129679209D01*
X113186294Y-129734014D01*
X113371866Y-129960134D01*
X113597986Y-130145706D01*
X113855966Y-130283599D01*
X114135889Y-130368513D01*
X114354050Y-130390000D01*
X114499950Y-130390000D01*
X114718111Y-130368513D01*
X114998034Y-130283599D01*
X115256014Y-130145706D01*
X115482134Y-129960134D01*
X115667706Y-129734014D01*
X115697000Y-129679209D01*
X115726294Y-129734014D01*
X115911866Y-129960134D01*
X116137986Y-130145706D01*
X116395966Y-130283599D01*
X116675889Y-130368513D01*
X116894050Y-130390000D01*
X117039950Y-130390000D01*
X117258111Y-130368513D01*
X117538034Y-130283599D01*
X117796014Y-130145706D01*
X118022134Y-129960134D01*
X118207706Y-129734014D01*
X118237000Y-129679209D01*
X118266294Y-129734014D01*
X118451866Y-129960134D01*
X118677986Y-130145706D01*
X118935966Y-130283599D01*
X119215889Y-130368513D01*
X119434050Y-130390000D01*
X119579950Y-130390000D01*
X119798111Y-130368513D01*
X120078034Y-130283599D01*
X120336014Y-130145706D01*
X120562134Y-129960134D01*
X120747706Y-129734014D01*
X120885599Y-129476034D01*
X120970513Y-129196111D01*
X120996716Y-128930061D01*
X125584000Y-128930061D01*
X125584000Y-129133939D01*
X125623774Y-129333898D01*
X125701795Y-129522256D01*
X125815063Y-129691774D01*
X125959226Y-129835937D01*
X126128744Y-129949205D01*
X126317102Y-130027226D01*
X126517061Y-130067000D01*
X126634026Y-130067000D01*
X126639774Y-130095898D01*
X126717795Y-130284256D01*
X126831063Y-130453774D01*
X126975226Y-130597937D01*
X127144744Y-130711205D01*
X127333102Y-130789226D01*
X127533061Y-130829000D01*
X127736939Y-130829000D01*
X127936898Y-130789226D01*
X128125256Y-130711205D01*
X128294774Y-130597937D01*
X128438937Y-130453774D01*
X128552205Y-130284256D01*
X128630226Y-130095898D01*
X128670000Y-129895939D01*
X128670000Y-129692061D01*
X128630226Y-129492102D01*
X128552205Y-129303744D01*
X128438937Y-129134226D01*
X128294774Y-128990063D01*
X128125256Y-128876795D01*
X127936898Y-128798774D01*
X127736939Y-128759000D01*
X127619974Y-128759000D01*
X127614226Y-128730102D01*
X127536205Y-128541744D01*
X127422937Y-128372226D01*
X127278774Y-128228063D01*
X127109256Y-128114795D01*
X126920898Y-128036774D01*
X126720939Y-127997000D01*
X126517061Y-127997000D01*
X126317102Y-128036774D01*
X126128744Y-128114795D01*
X125959226Y-128228063D01*
X125815063Y-128372226D01*
X125701795Y-128541744D01*
X125623774Y-128730102D01*
X125584000Y-128930061D01*
X120996716Y-128930061D01*
X120999185Y-128905000D01*
X120970513Y-128613889D01*
X120885599Y-128333966D01*
X120747706Y-128075986D01*
X120562134Y-127849866D01*
X120532313Y-127825393D01*
X120601180Y-127804502D01*
X120711494Y-127745537D01*
X120808185Y-127666185D01*
X120887537Y-127569494D01*
X120946502Y-127459180D01*
X120982812Y-127339482D01*
X120995072Y-127215000D01*
X120992000Y-126650750D01*
X120833250Y-126492000D01*
X119634000Y-126492000D01*
X119634000Y-126512000D01*
X119380000Y-126512000D01*
X119380000Y-126492000D01*
X119360000Y-126492000D01*
X119360000Y-126238000D01*
X119380000Y-126238000D01*
X119380000Y-125038750D01*
X119634000Y-125038750D01*
X119634000Y-126238000D01*
X120833250Y-126238000D01*
X120992000Y-126079250D01*
X120995072Y-125515000D01*
X120982812Y-125390518D01*
X120946502Y-125270820D01*
X120887537Y-125160506D01*
X120808185Y-125063815D01*
X120711494Y-124984463D01*
X120601180Y-124925498D01*
X120481482Y-124889188D01*
X120357000Y-124876928D01*
X119792750Y-124880000D01*
X119634000Y-125038750D01*
X119380000Y-125038750D01*
X119221250Y-124880000D01*
X118657000Y-124876928D01*
X118532518Y-124889188D01*
X118412820Y-124925498D01*
X118302506Y-124984463D01*
X118205815Y-125063815D01*
X118126463Y-125160506D01*
X118067498Y-125270820D01*
X118046607Y-125339687D01*
X118022134Y-125309866D01*
X117796014Y-125124294D01*
X117538034Y-124986401D01*
X117258111Y-124901487D01*
X117039950Y-124880000D01*
X116894050Y-124880000D01*
X116675889Y-124901487D01*
X116395966Y-124986401D01*
X116137986Y-125124294D01*
X115911866Y-125309866D01*
X115726294Y-125535986D01*
X115697000Y-125590791D01*
X115667706Y-125535986D01*
X115482134Y-125309866D01*
X115256014Y-125124294D01*
X114998034Y-124986401D01*
X114718111Y-124901487D01*
X114499950Y-124880000D01*
X114354050Y-124880000D01*
X114135889Y-124901487D01*
X113855966Y-124986401D01*
X113597986Y-125124294D01*
X113371866Y-125309866D01*
X113186294Y-125535986D01*
X113157000Y-125590791D01*
X113127706Y-125535986D01*
X112942134Y-125309866D01*
X112716014Y-125124294D01*
X112458034Y-124986401D01*
X112178111Y-124901487D01*
X111959950Y-124880000D01*
X111814050Y-124880000D01*
X111595889Y-124901487D01*
X111315966Y-124986401D01*
X111057986Y-125124294D01*
X110831866Y-125309866D01*
X110646294Y-125535986D01*
X110617000Y-125590791D01*
X110587706Y-125535986D01*
X110402134Y-125309866D01*
X110176014Y-125124294D01*
X109918034Y-124986401D01*
X109638111Y-124901487D01*
X109419950Y-124880000D01*
X109274050Y-124880000D01*
X109055889Y-124901487D01*
X108775966Y-124986401D01*
X108517986Y-125124294D01*
X108291866Y-125309866D01*
X108106294Y-125535986D01*
X108077000Y-125590791D01*
X108047706Y-125535986D01*
X107862134Y-125309866D01*
X107636014Y-125124294D01*
X107378034Y-124986401D01*
X107098111Y-124901487D01*
X106879950Y-124880000D01*
X106734050Y-124880000D01*
X106515889Y-124901487D01*
X106235966Y-124986401D01*
X105977986Y-125124294D01*
X105751866Y-125309866D01*
X105566294Y-125535986D01*
X105537000Y-125590791D01*
X105507706Y-125535986D01*
X105322134Y-125309866D01*
X105096014Y-125124294D01*
X104838034Y-124986401D01*
X104558111Y-124901487D01*
X104339950Y-124880000D01*
X104194050Y-124880000D01*
X103975889Y-124901487D01*
X103695966Y-124986401D01*
X103437986Y-125124294D01*
X103211866Y-125309866D01*
X103026294Y-125535986D01*
X102997000Y-125590791D01*
X102967706Y-125535986D01*
X102782134Y-125309866D01*
X102556014Y-125124294D01*
X102298034Y-124986401D01*
X102018111Y-124901487D01*
X101799950Y-124880000D01*
X101654050Y-124880000D01*
X101435889Y-124901487D01*
X101155966Y-124986401D01*
X100897986Y-125124294D01*
X100671866Y-125309866D01*
X100486294Y-125535986D01*
X100457000Y-125590791D01*
X100427706Y-125535986D01*
X100242134Y-125309866D01*
X100016014Y-125124294D01*
X99758034Y-124986401D01*
X99478111Y-124901487D01*
X99259950Y-124880000D01*
X99114050Y-124880000D01*
X98895889Y-124901487D01*
X98615966Y-124986401D01*
X98357986Y-125124294D01*
X98131866Y-125309866D01*
X97946294Y-125535986D01*
X97917000Y-125590791D01*
X97887706Y-125535986D01*
X97702134Y-125309866D01*
X97476014Y-125124294D01*
X97218034Y-124986401D01*
X96938111Y-124901487D01*
X96719950Y-124880000D01*
X96574050Y-124880000D01*
X96355889Y-124901487D01*
X96075966Y-124986401D01*
X95817986Y-125124294D01*
X95591866Y-125309866D01*
X95406294Y-125535986D01*
X95377000Y-125590791D01*
X95347706Y-125535986D01*
X95162134Y-125309866D01*
X94936014Y-125124294D01*
X94678034Y-124986401D01*
X94398111Y-124901487D01*
X94179950Y-124880000D01*
X94034050Y-124880000D01*
X93815889Y-124901487D01*
X93535966Y-124986401D01*
X93277986Y-125124294D01*
X93051866Y-125309866D01*
X92866294Y-125535986D01*
X92837000Y-125590791D01*
X92807706Y-125535986D01*
X92622134Y-125309866D01*
X92396014Y-125124294D01*
X92138034Y-124986401D01*
X91858111Y-124901487D01*
X91639950Y-124880000D01*
X91494050Y-124880000D01*
X91275889Y-124901487D01*
X90995966Y-124986401D01*
X90737986Y-125124294D01*
X90511866Y-125309866D01*
X90326294Y-125535986D01*
X90291799Y-125600523D01*
X90222178Y-125483645D01*
X90027269Y-125267412D01*
X89793920Y-125093359D01*
X89531099Y-124968175D01*
X89383890Y-124923524D01*
X89154000Y-125044845D01*
X89154000Y-126238000D01*
X89174000Y-126238000D01*
X89174000Y-126492000D01*
X89154000Y-126492000D01*
X89154000Y-126512000D01*
X88900000Y-126512000D01*
X88900000Y-126492000D01*
X87706186Y-126492000D01*
X87585519Y-126721891D01*
X87682843Y-126996252D01*
X87831822Y-127246355D01*
X88026731Y-127462588D01*
X88255756Y-127633416D01*
X88197986Y-127664294D01*
X87971866Y-127849866D01*
X87786294Y-128075986D01*
X87648401Y-128333966D01*
X87563487Y-128613889D01*
X87534815Y-128905000D01*
X82574468Y-128905000D01*
X82532256Y-128876795D01*
X82343898Y-128798774D01*
X82143939Y-128759000D01*
X82026974Y-128759000D01*
X82021226Y-128730102D01*
X81943205Y-128541744D01*
X81829937Y-128372226D01*
X81685774Y-128228063D01*
X81516256Y-128114795D01*
X81327898Y-128036774D01*
X81127939Y-127997000D01*
X80924061Y-127997000D01*
X80724102Y-128036774D01*
X80535744Y-128114795D01*
X80366226Y-128228063D01*
X80222063Y-128372226D01*
X80108795Y-128541744D01*
X80030774Y-128730102D01*
X79991000Y-128930061D01*
X76860000Y-128930061D01*
X76860000Y-126008109D01*
X87585519Y-126008109D01*
X87706186Y-126238000D01*
X88900000Y-126238000D01*
X88900000Y-125044845D01*
X88670110Y-124923524D01*
X88522901Y-124968175D01*
X88260080Y-125093359D01*
X88026731Y-125267412D01*
X87831822Y-125483645D01*
X87682843Y-125733748D01*
X87585519Y-126008109D01*
X76860000Y-126008109D01*
X76860000Y-119285279D01*
X76898909Y-118888455D01*
X77004780Y-118537792D01*
X77176744Y-118214375D01*
X77408254Y-117930516D01*
X77690486Y-117697035D01*
X78012695Y-117522817D01*
X78362614Y-117414498D01*
X78757443Y-117373000D01*
X98773721Y-117373000D01*
X98923869Y-117387722D01*
M02*
